<?xml version="1.0" encoding="utf-8"?>
<!-- Generator: Adobe Illustrator 22.0.1, SVG Export Plug-In . SVG Version: 6.00 Build 0)  -->
<svg version="1.1" id="Layer_1" xmlns="http://www.w3.org/2000/svg" xmlns:xlink="http://www.w3.org/1999/xlink" x="0px" y="0px"
	 viewBox="0 0 100 100" style="enable-background:new 0 0 100 100;" xml:space="preserve">
<style type="text/css">
	.st0{fill:#FFFFFF;}
</style>
<g>
	<circle class="st0" cx="49" cy="49" r="39"/>
	<path d="M49,11c21,0,38,17,38,38S70,87,49,87S11,70,11,49S28,11,49,11 M49,9C26.9,9,9,26.9,9,49s17.9,40,40,40s40-17.9,40-40
		S71.1,9,49,9L49,9z"/>
</g>
<g>
	<rect x="48.5" y="23.5" class="st0" width="1" height="47"/>
	<path d="M49,24v46V24 M50,23h-2v48h2V23L50,23z"/>
</g>
<g>
	<rect x="41.5" y="53.7" transform="matrix(0.7071 -0.7071 0.7071 0.7071 -32.9533 48.4436)" class="st0" width="1" height="20.7"/>
	<polygon points="35.1,55.6 33.6,57.1 48.9,72.4 50.4,70.9 35.1,55.6 	"/>
</g>
<g>
	<rect x="45.7" y="63.5" transform="matrix(0.7071 -0.7071 0.7071 0.7071 -28.8528 58.3431)" class="st0" width="20.7" height="1"/>
	<polygon points="62.9,55.6 47.6,70.9 49.1,72.4 64.4,57.1 62.9,55.6 	"/>
</g>
</svg>
