<svg xmlns="http://www.w3.org/2000/svg" xmlns:xlink="http://www.w3.org/1999/xlink" width="8" height="15" viewBox="0 0 8 15"><defs><path id="b3tqa" d="M226.14 444.68l3.43-4.86a.17.17 0 0 0 .02-.18.17.17 0 0 0-.16-.09h-6.86a.17.17 0 0 0-.15.1.17.17 0 0 0 0 .17l3.44 4.86c.03.05.08.08.14.08.06 0 .11-.03.14-.08z"/><path id="b3tqb" d="M225.86 430.82l-3.43 4.86a.17.17 0 0 0-.02.18c.03.05.1.09.16.09h6.86c.07 0 .12-.04.15-.1a.17.17 0 0 0 0-.17l-3.44-4.86a.17.17 0 0 0-.28 0z"/></defs><g><g transform="translate(-222 -430)"><g><use fill="#20add0" xlink:href="#b3tqa"/></g><g><use fill="#20add0" xlink:href="#b3tqb"/></g></g></g></svg>