<svg xmlns="http://www.w3.org/2000/svg" xmlns:xlink="http://www.w3.org/1999/xlink" width="16" height="21" viewBox="0 0 16 21"><defs><path id="zjima" d="M180.77 502.86c0 .82-.24 1.58-.74 2.27-.5.7-1.21 1.23-2.12 1.59a7.4 7.4 0 0 1-1.77.42v2.68h-2.19v-2.56H172.55v2.56h-2.19v-2.55h-4.64v-2.15h.62c.4 0 .69-.04.83-.11a.61.61 0 0 0 .3-.3c.07-.13.1-.42.1-.87v-8.66c0-.46-.03-.76-.1-.88a.65.65 0 0 0-.3-.3 2.1 2.1 0 0 0-.83-.12h-.62v-2.14h4.64v-2.56h2.19v2.56h1.4v-2.56h2.19v2.65c.64.07 1.2.2 1.65.38.78.31 1.37.77 1.79 1.36a3.3 3.3 0 0 1 .3 3.4 3.7 3.7 0 0 1-.96 1.22 5 5 0 0 1-1.65.87c.73.19 1.3.4 1.68.61a3.65 3.65 0 0 1 1.82 3.18zm-9.34-4.83h1.71c.9 0 1.56-.08 1.99-.23a1.73 1.73 0 0 0 1.3-1.71c0-.4-.11-.76-.32-1.05-.2-.29-.5-.5-.89-.62a7.93 7.93 0 0 0-2.08-.18h-1.7zm5.3 4.42c0-.46-.12-.85-.33-1.17a1.97 1.97 0 0 0-.97-.73 5.98 5.98 0 0 0-1.98-.24h-2.02v3.36c0 .48.03.75.06.84.03.1.1.17.18.21.09.04.32.06.7.06h1.14c.66 0 1.2-.06 1.64-.18a2.17 2.17 0 0 0 1.57-2.15z"/></defs><g><g transform="translate(-165 -489)"><use fill="#131149" xlink:href="#zjima"/></g></g></svg>