<svg xmlns="http://www.w3.org/2000/svg" width="11.967" height="11.999" viewBox="0 0 22.938 23">
  <defs>
    <style>
      .cls-1 {
        fill: #9798b0;
        fill-rule: evenodd;
      }
    </style>
  </defs>
  <path id="copyright" class="cls-1" d="M281.5,13665a11.5,11.5,0,1,0,11.466,11.5A11.516,11.516,0,0,0,281.5,13665Zm0,21.9a10.4,10.4,0,1,1,10.424-10.4A10.376,10.376,0,0,1,281.5,13686.9Zm0-16.1a5.809,5.809,0,0,1,4.054,1.6l0.737-.7a6.8,6.8,0,1,0,0,9.6l-0.737-.7a5.809,5.809,0,0,1-4.054,1.6A5.7,5.7,0,1,1,281.5,13670.8Z" transform="translate(-270.031 -13665)"/>
</svg>
