<?xml version="1.0" encoding="utf-8"?>
<!-- Generator: Adobe Illustrator 21.0.0, SVG Export Plug-In . SVG Version: 6.00 Build 0)  -->
<svg version="1.1" id="Слой_1" xmlns="http://www.w3.org/2000/svg" xmlns:xlink="http://www.w3.org/1999/xlink" x="0px" y="0px"
	 viewBox="0 0 138 149.3" style="enable-background:new 0 0 138 149.3;" xml:space="preserve">
<style type="text/css">
	.st0{fill:#FFFFFF;}
</style>
<title>icon3</title>
<path class="st0" d="M21.5,145.3c-9.2,0-16.7-7.4-16.7-16.6V60.5L5,59.7l0.1-0.4l0,0l0,0l0.3-0.4l0.4-0.5h0.1v-0.1l12.9-11.9V35.7
	c0-1.8,1.4-3.2,3.2-3.2h11.9L58.3,9.8l1.1-1c6.4-5.5,15-5.3,20.7-0.1L105.4,32c0.2,0.1,0.3,0.3,0.4,0.5h11.3c1.8,0,3.2,1.5,3.2,3.2
	V46l0.4,0.2c0.2,0.1,0.4,0.2,0.5,0.4L134,58.2c0.7,0.6,1,1.5,1,2.4v68.1c0,9.2-7.5,16.6-16.6,16.6H21.5z M118.3,138.8
	c1.4,0,2.7-0.3,4-0.8l1.4-0.8l-48.4-44L74,92.4c-3.4-1.9-7-1.8-10.6,1.7l-47.3,43.2l1.4,0.8c1.3,0.5,2.6,0.8,4,0.8L118.3,138.8z
	 M127.8,132.3l0.5-1.6c0.1-0.7,0.2-1.4,0.2-2.1V69l-42,25.7L127.8,132.3z M12,132.3l40.3-36.8l-41-25.1v58.2c0,0.7,0.1,1.4,0.2,2.1
	L12,132.3z M57.3,91l1.7-1.5c6.7-6.4,14.2-5.7,20.3-1.3c0.1,0.1,0.2,0.1,0.3,0.2l2,1.8L114,70.3l-0.1-0.7V38.9H25.1v31.9l-0.1,0.4
	l6.7,4.1l-0.1-0.5c0-1.8,1.5-3.2,3.2-3.2H50c1.8,0,3.2,1.5,3.2,3.2c0,1.8-1.4,3.2-3.2,3.2H36.3L57.3,91z M61.5,78.1
	c-1.8,0-3.2-1.5-3.2-3.2c0-1.8,1.5-3.2,3.2-3.2l0,0h10.1c1.8,0,3.2,1.5,3.2,3.2c0,1.8-1.5,3.2-3.2,3.2H61.5z M82.5,78.1
	c-1.8,0-3.2-1.5-3.2-3.2c0-1.8,1.5-3.2,3.2-3.2H87c1.8,0,3.2,1.5,3.2,3.2c0,1.8-1.5,3.2-3.2,3.2H82.5z M18.7,67.3V55.2L11.3,62v0.8
	L18.7,67.3L18.7,67.3z M120.4,66.4l6.4-3.9c0.4-0.2,0.8-0.4,1.2-0.4h0.6V62l-8.1-7.5L120.4,66.4z M34.9,64.8c-1.8,0-3.2-1.5-3.2-3.2
	c0-1.8,1.5-3.2,3.2-3.2H50c1.8,0,3.2,1.5,3.2,3.2c0,1.8-1.5,3.2-3.2,3.2H34.9z M61.6,64.8c-1.8,0-3.2-1.5-3.2-3.2
	c0-1.8,1.5-3.2,3.2-3.2l0,0H102c1.8,0,3.2,1.5,3.2,3.2c0,1.8-1.5,3.2-3.2,3.2H61.6z M34.9,51.6c-1.8,0-3.2-1.5-3.2-3.2
	c0-1.8,1.5-3.2,3.2-3.2l0,0h40.4c1.8,0,3.2,1.5,3.2,3.2c0,1.8-1.5,3.2-3.2,3.2H34.9z M86.9,51.6c-1.8,0-3.2-1.5-3.2-3.2
	c0-1.8,1.5-3.2,3.2-3.2l0,0H102c1.8,0,3.2,1.5,3.2,3.2c0,1.8-1.5,3.2-3.2,3.2H86.9z M96.4,32.5l-20.7-19c-3.4-3.1-8.7-3.3-12.9,1
	l-0.1,0.1L43.3,32.4L96.4,32.5z"/>
</svg>
