<svg xmlns="http://www.w3.org/2000/svg" width="11.2" height="21" viewBox="0 0 16 30">
  <defs>
    <style>
      .cls-1 {
        fill: #110f46;
        fill-rule: evenodd;
      }
    </style>
  </defs>
  <path id="f" class="cls-1" d="M2246.4,13660h-3.84c-4.31,0-7.1,2.9-7.1,7.4v3.4h-3.86a0.622,0.622,0,0,0-.6.6v4.9a0.561,0.561,0,0,0,.6.6h3.86v12.5a0.624,0.624,0,0,0,.61.6h5.03a0.622,0.622,0,0,0,.6-0.6v-12.5h4.51a0.564,0.564,0,0,0,.61-0.6v-4.9a0.453,0.453,0,0,0-.18-0.4,0.666,0.666,0,0,0-.42-0.2h-4.52v-2.9c0-1.4.33-2.1,2.11-2.1h2.59a0.622,0.622,0,0,0,.6-0.6v-4.6A0.622,0.622,0,0,0,2246.4,13660Z" transform="translate(-2231 -13660)"/>
</svg>
