<svg xmlns="http://www.w3.org/2000/svg" width="27.426" height="21.28" viewBox="0 0 39.18 30.4">
  <defs>
    <style>
      .cls-1 {
        fill: #110f46;
        fill-rule: evenodd;
      }
    </style>
  </defs>
  <path id="g" class="cls-1" d="M2396.48,13673.8h-14.04v4.7h8.57a10.039,10.039,0,1,1-9.57-13.1,9.772,9.772,0,0,1,7.13,3l3.4-3.7a14.923,14.923,0,0,0-10.53-4.4,15.2,15.2,0,0,0,0,30.4,15.382,15.382,0,0,0,15.04-12.2v-4.7h0Zm9.12,0h-2.87v-2.9h-2.46v2.9h-2.87v2.5h2.87v2.9h2.46v-2.9h2.87v-2.5Z" transform="translate(-2366.41 -13660.3)"/>
</svg>
