<?xml version="1.0" encoding="utf-8"?>
<!-- Generator: Adobe Illustrator 21.1.0, SVG Export Plug-In . SVG Version: 6.00 Build 0)  -->
<svg version="1.1" id="Слой_1" xmlns="http://www.w3.org/2000/svg" xmlns:xlink="http://www.w3.org/1999/xlink" x="0px" y="0px"
	 viewBox="0 0 250 250" style="enable-background:new 0 0 250 250;" xml:space="preserve">
<style type="text/css">
	.st0{fill:#1C5A74;}
	.st1{fill:#FFFFFF;}
	.st2{fill:#98DAF5;}
</style>
<g>
	<path class="st0" d="M168,135.4h-7.3V98.9c0-11.1-24-18.3-36.5-18.3s-36.5,7.1-36.5,18.3v36.5h-7.3V98.9c0-17,28.1-25.6,43.8-25.6
		S168,81.9,168,98.9V135.4z"/>
</g>
<g>
	<rect x="142.4" y="102.5" class="st0" width="7.3" height="32.9"/>
</g>
<g>
	<rect x="98.6" y="102.5" class="st0" width="7.3" height="32.9"/>
</g>
<g>
	<path class="st1" d="M124.2,65.7c10.2,0,18.3-8.3,18.3-18.6v-6.2c0-10.3-8.1-18.6-18.3-18.6c-10.2,0-18.3,8.3-18.3,18.6V47
		C105.9,57.3,114,65.7,124.2,65.7z"/>
	<path class="st0" d="M124.2,69.3c-12.1,0-21.9-10-21.9-22.3v-6.2c0-12.3,9.8-22.3,21.9-22.3s21.9,10,21.9,22.3V47
		C146.1,59.3,136.3,69.3,124.2,69.3z M124.2,25.9c-8.1,0-14.6,6.7-14.6,15V47c0,8.3,6.6,15,14.6,15s14.6-6.7,14.6-15v-6.2
		C138.8,32.6,132.2,25.9,124.2,25.9z"/>
</g>
<g>
	<path class="st2" d="M101.2,169.5c-2.6-7.3-9.5-12.2-17.2-12.2H62.1v-25.6l7.3,7.3c0,0,15.8,0,25.6,0c16.7,0,14.6-18.3,14.6-18.3
		H84L58.5,95.2H43.9c-8.1,0-14.6,6.5-14.6,14.6v54.8c0,12.1,9.8,21.9,21.9,21.9h29.2L95,230.3h20.3L101.2,169.5z"/>
</g>
<g>
	<path class="st1" d="M54.8,83.9c-10.2,0-18.3-8.3-18.3-18.6v-6.2c0-10.3,8.1-18.6,18.3-18.6c10.2,0,18.3,8.3,18.3,18.6v6.2
		C73.1,75.6,65,83.9,54.8,83.9z"/>
	<path class="st0" d="M54.8,87.6c-12.1,0-21.9-10-21.9-22.3v-6.2c0-12.3,9.8-22.3,21.9-22.3s21.9,10,21.9,22.3v6.2
		C76.7,77.6,66.9,87.6,54.8,87.6z M54.8,44.1c-8.1,0-14.6,6.7-14.6,15v6.2c0,8.3,6.6,15,14.6,15s14.6-6.7,14.6-15v-6.2
		C69.4,50.8,62.9,44.1,54.8,44.1z"/>
</g>
<g>
	<path class="st0" d="M91.5,231.5l-13.8-41.3H51.2c-14.1,0-25.6-11.5-25.6-25.6v-54.8c0-10.1,8.2-18.3,18.3-18.3H60l25.6,25.6h27.3
		l0.4,3.2c0,0.4,1.1,10.3-4.7,16.9c-3.2,3.6-7.8,5.5-13.5,5.5H67.9l-23-23l5.2-5.2l20.8,20.8h24c3.6,0,6.3-1,8.1-3
		c2-2.3,2.7-5.5,2.9-7.9H82.5L56.9,98.9H43.9c-6,0-11,4.9-11,11v54.8c0,10.1,8.2,18.3,18.3,18.3H83l15.4,46.3L91.5,231.5z"/>
</g>
<g>
	<path class="st0" d="M111.7,231.1l-13.9-60.6c-2.1-5.8-7.6-9.6-13.7-9.6H58.5v-29.2h7.3v21.9H84c9.3,0,17.6,5.9,20.7,14.7l0.1,0.4
		l14,60.8L111.7,231.1z"/>
</g>
<g>
	<path class="st1" d="M206.5,95.2h-14.6l-25.6,25.6h-25.6c0,0-2.1,18.3,14.6,18.3c9.7,0,25.6,0,25.6,0l9-7.3v25.6h-23.6
		c-7.8,0-14.7,4.9-17.2,12.2l-14,60.8h20.3l14.6-43.8h29.2c12.1,0,23.6-9.8,23.6-21.9v-54.8C222.7,101.8,214.6,95.2,206.5,95.2z"/>
</g>
<g>
	<path class="st1" d="M197.2,83.9c10.2,0,18.3-8.3,18.3-18.6v-6.2c0-10.3-8.1-18.6-18.3-18.6c-10.2,0-18.3,8.3-18.3,18.6v6.2
		C178.9,75.6,187,83.9,197.2,83.9z"/>
	<path class="st0" d="M197.2,87.6c-12.1,0-21.9-10-21.9-22.3v-6.2c0-12.3,9.8-22.3,21.9-22.3s21.9,10,21.9,22.3v6.2
		C219.1,77.6,209.3,87.6,197.2,87.6z M197.2,44.1c-8.1,0-14.6,6.7-14.6,15v6.2c0,8.3,6.6,15,14.6,15s14.6-6.7,14.6-15v-6.2
		C211.8,50.8,205.2,44.1,197.2,44.1z"/>
</g>
<g>
	<path class="st0" d="M158.8,231.5l-6.9-2.3l15.4-46.3h31.8c10.6,0,19.9-8.5,19.9-18.3v-54.8c0-6.2-6.8-11-12.6-11h-13.1l-25.6,25.6
		h-23.4c0.2,2.4,0.9,5.7,2.9,8c1.8,2,4.4,3,8,3h24l20.8-20.8l5.2,5.2l-23,23h-27.1c-5.7,0-10.3-1.8-13.5-5.5
		c-5.8-6.5-4.8-16.4-4.7-16.9l0.4-3.2h27.3l25.6-25.6h16.1c10.6,0,19.9,8.5,19.9,18.3v54.8c0,13.6-12.7,25.6-27.2,25.6h-26.6
		L158.8,231.5z"/>
</g>
<g>
	<path class="st0" d="M139.5,231.1l-7.1-1.5l13.3-61.2c3.1-8.8,11.4-14.7,20.7-14.7h19.9v-21.9h7.3v29.2h-27.2
		c-6.1,0-11.6,3.8-13.7,9.6L139.5,231.1z"/>
</g>
<g>
	<rect x="62.1" y="135.4" class="st0" width="127.8" height="7.3"/>
</g>
<g>
	<path class="st0" d="M200.8,204.7h-21.9v-7.3h21.9c18.1,0,32.9-14.7,32.9-32.9V95.2h7.3v69.4C241,186.7,223,204.7,200.8,204.7z"/>
</g>
<g>
	<path class="st0" d="M73.1,204.7H51.2c-22.1,0-40.2-18-40.2-40.2V95.2h7.3v69.4c0,18.1,14.7,32.9,32.9,32.9h21.9V204.7z"/>
</g>
</svg>
