<?xml version="1.0" encoding="utf-8"?>
<!-- Generator: Adobe Illustrator 21.1.0, SVG Export Plug-In . SVG Version: 6.00 Build 0)  -->
<svg version="1.1" id="Слой_1" xmlns="http://www.w3.org/2000/svg" xmlns:xlink="http://www.w3.org/1999/xlink" x="0px" y="0px"
	 viewBox="0 0 250 250" style="enable-background:new 0 0 250 250;" xml:space="preserve">
<style type="text/css">
	.st0{fill:#98DAF5;}
	.st1{fill:#FFFFFF;}
	.st2{fill:#1C5A74;}
</style>
<g>
	<path class="st0" d="M36.9,243.2v-78.7c-9.8,0-21.9-12.1-21.9-21.9v-17.5V98.9c0-11.6,15.7-26.2,30.6-26.2h35
		c13.6,0,30.6,12.4,30.6,30.6v39.3c0,9.8-12.1,21.9-21.9,21.9v78.7H36.9z"/>
</g>
<g>
	<path class="st1" d="M168,243.2v-78.7c-8.7,0-21.9-12.1-21.9-21.9v-17.5V98.9c0-11.6,15.7-26.2,30.6-26.2h35
		c13.6,0,30.6,12.4,30.6,30.6v39.3c0,9.8-13.1,21.9-21.9,21.9v78.7H168z"/>
</g>
<g>
	<path class="st1" d="M63.1,58.3c11.7,0,21.9-9.6,21.9-21.4v-7C85,18,74.9,8.4,63.1,8.4c-11.7,0-21.9,9.6-21.9,21.4v7
		C41.3,48.7,51.4,58.3,63.1,58.3z"/>
	<path class="st2" d="M63.1,62.6c-14.2,0-26.2-11.8-26.2-25.8v-7c0-14,12-25.8,26.2-25.8s26.2,11.8,26.2,25.8v7
		C89.4,50.8,77.4,62.6,63.1,62.6z M63.1,12.8c-9.5,0-17.5,7.8-17.5,17v7c0,9.2,8,17,17.5,17s17.5-7.8,17.5-17v-7
		C80.6,20.6,72.6,12.8,63.1,12.8z"/>
</g>
<g>
	<path class="st2" d="M36.9,168.9c-12.3,0-26.2-14-26.2-26.2v-39.3c0-20,18.5-35,35-35h35c16.9,0,35,20.5,35,35h-8.7
		c0-9.1-13.9-26.2-26.2-26.2h-35c-10.7,0-26.2,10.2-26.2,26.2v39.3c0,7.4,10.1,17.5,17.5,17.5V168.9z"/>
</g>
<g>
	<rect x="32.6" y="103.3" class="st2" width="8.7" height="139.9"/>
</g>
<g>
	<path class="st2" d="M93.7,243.2H85v-83h4.4c7.4,0,17.5-10.1,17.5-17.5v-13.1h8.7v13.1c0,10.8-10.9,23-21.9,25.7V243.2z"/>
</g>
<g>
	<rect x="58.8" y="164.5" class="st2" width="8.7" height="78.7"/>
</g>
<g>
	<rect x="63.1" y="112.1" class="st2" width="43.7" height="8.7"/>
</g>
<g>
	<rect x="115.6" y="112.1" class="st2" width="8.7" height="8.7"/>
</g>
<g>
	<path class="st1" d="M194.3,58.3c-11.7,0-21.9-9.6-21.9-21.4v-7c0-11.8,10.1-21.4,21.9-21.4c11.7,0,21.9,9.6,21.9,21.4v7
		C216.1,48.7,206,58.3,194.3,58.3z"/>
	<path class="st2" d="M194.3,62.6C180,62.6,168,50.8,168,36.9v-7c0-14,12-25.8,26.2-25.8s26.2,11.8,26.2,25.8v7
		C220.5,50.8,208.5,62.6,194.3,62.6z M194.3,12.8c-9.5,0-17.5,7.8-17.5,17v7c0,9.2,8,17,17.5,17s17.5-7.8,17.5-17v-7
		C211.7,20.6,203.7,12.8,194.3,12.8z"/>
</g>
<g>
	<path class="st2" d="M220.5,168.9v-8.7c7.4,0,17.5-10.1,17.5-17.5v-39.3c0-16-15.5-26.2-26.2-26.2h-35c-12.3,0-26.2,17.1-26.2,26.2
		h-8.7c0-14.4,18.1-35,35-35h35c16.5,0,35,15,35,35v39.3C246.7,154.9,232.7,168.9,220.5,168.9z"/>
</g>
<g>
	<rect x="216.1" y="103.3" class="st2" width="8.7" height="139.9"/>
</g>
<g>
	<path class="st2" d="M172.4,243.2h-8.7v-74.9c-10.2-2.8-21.9-14.5-21.9-25.6v-13.1h8.7v13.1c0,7.4,11.2,17.5,17.5,17.5h4.4V243.2z"
		/>
</g>
<g>
	<rect x="189.9" y="164.5" class="st2" width="8.7" height="78.7"/>
</g>
<g>
	<rect x="150.6" y="112.1" class="st2" width="43.7" height="8.7"/>
</g>
<g>
	<polygon class="st2" points="179.9,141.4 173.7,135.2 192.4,116.4 173.7,97.7 179.9,91.5 204.8,116.4 	"/>
</g>
<g>
	<polygon class="st2" points="77.5,141.4 52.6,116.4 77.5,91.5 83.7,97.7 65,116.4 83.7,135.2 	"/>
</g>
<g>
	<rect x="133.1" y="112.1" class="st2" width="8.7" height="8.7"/>
</g>
</svg>
