<?xml version="1.0" encoding="utf-8"?>
<!-- Generator: Adobe Illustrator 21.1.0, SVG Export Plug-In . SVG Version: 6.00 Build 0)  -->
<svg version="1.1" id="Слой_1" xmlns="http://www.w3.org/2000/svg" xmlns:xlink="http://www.w3.org/1999/xlink" x="0px" y="0px"
	 viewBox="0 0 250 250" style="enable-background:new 0 0 250 250;" xml:space="preserve">
<style type="text/css">
	.st0{fill:#1C5A74;}
	.st1{fill:#98DAF5;}
	.st2{fill:#FFFFFF;}
</style>
<g>
	<rect x="220" y="152.3" class="st0" width="7.5" height="30.1"/>
</g>
<g>
	<path class="st0" d="M123.3,244.2c-1.9,0-3.8-0.4-5.6-1.2l-89.3-40.8l3.1-6.9l89.2,40.8c1.6,0.7,3.4,0.7,4.9,0l103.9-48.5l3.2,6.8
		L128.9,243C127.1,243.8,125.2,244.2,123.3,244.2z"/>
</g>
<g>
	<path class="st0" d="M28.5,202.4c-10.2-4.6-15.8-12.3-15.8-21.8v-15.1c0-9.2,5.8-18.1,14.4-22l96.1-43.4c10.5-4.7,22.5-4.7,32.9,0
		l74.5,33.6c4,1.8,6.5,5.6,6.5,10c0,4.4-2.5,8.2-6.5,10l-103.6,46.8c-3.8,1.7-8.2,1.7-12.1,0l-75.6-34.1c-1.1-0.5-2.1-0.5-2.9,0
		c-0.8,0.5-1.3,1.5-1.3,2.7v17h-7.5v-17c0-3.8,1.8-7.1,4.7-9.1c3-1.9,6.6-2.1,10.1-0.6l75.6,34.1c1.9,0.8,4,0.8,5.9,0L227.7,147
		c1.9-0.9,2-2.6,2-3.2c0-0.5-0.1-2.3-2-3.2l-74.5-33.6c-8.5-3.8-18.3-3.8-26.7,0l-96.1,43.4c-5.9,2.7-10,8.9-10,15.1v15.1
		c0,8.1,6.2,12.6,11.3,14.9L28.5,202.4z"/>
</g>
<g>
	<path class="st1" d="M118.7,61.8c1.3,0.3,2.5,0.6,3.7,0.8c1.8,0.3,4.2-0.2,7.2-0.9c3.3-0.7,7.4-1.7,12.3-1.7
		c3.8,0,7.6,0.5,11.5,1.7c8.3,2.4,14.9,7.6,18.9,15.1c5.9,10.8,6.4,26.3,1.5,42.6c-5.6,18.7-20.1,33.2-35.9,35.9
		c-1.2,0.2-2.5,0.3-3.8,0.3c-3.5,0-7-0.8-9.8-1.7c-2.5-0.8-5.2-0.8-7.7,0c-2.9,1-6.3,1.7-9.8,1.7h0c-1.3,0-2.6-0.1-3.8-0.3
		c-15.8-2.7-30.2-17.2-35.9-35.9C56.8,85,71.8,69.9,86.3,63.2c5.2-2.4,10.6-3.6,16.6-3.6"/>
</g>
<g>
	<path class="st0" d="M134.2,159.4c-3.5,0-7.2-0.7-11-1.9c-1.7-0.6-3.5-0.6-5.3,0c-5.6,1.9-10.8,2.4-15.5,1.6
		c-17.2-3-32.8-18.5-38.9-38.5c-11.7-38.9,8.2-54.8,21.2-60.7c5.7-2.6,11.7-3.9,18.2-3.9v7.5c-5.4,0-10.3,1.1-15,3.2
		c-19,8.8-24.8,26.2-17.1,51.7c5.3,17.4,18.5,30.8,32.9,33.3c3.5,0.6,7.5,0.2,11.8-1.3c3.3-1.1,6.8-1.1,10.1,0
		c4.4,1.5,8.4,1.9,11.8,1.3c14.5-2.5,27.7-15.9,32.9-33.3c4.6-15.3,4.2-29.8-1.2-39.7c-3.6-6.5-9.3-11.1-16.7-13.2
		c-3.6-1-7-1.5-10.5-1.5c-4.5,0-8.4,0.9-11.5,1.6c-3.2,0.7-6.2,1.4-8.8,0.9c-1.2-0.2-2.5-0.5-3.8-0.8l1.6-7.4l0,0
		c1.2,0.3,2.4,0.5,3.6,0.8c1.1,0.2,3.6-0.4,5.7-0.8c3.5-0.8,7.8-1.8,13.2-1.8c4.2,0,8.3,0.6,12.6,1.8c9.3,2.7,16.7,8.5,21.2,16.9
		c6.3,11.7,7,28.2,1.8,45.5c-6,20.1-21.7,35.5-38.9,38.5C137.3,159.3,135.8,159.4,134.2,159.4z"/>
</g>
<g>
	<path class="st0" d="M77.6,117.5c-1-3.2-1.7-6.3-2.2-9.3l7.4-1.2c0.4,2.6,1.1,5.4,1.9,8.3L77.6,117.5z M74.8,100.4
		c-0.1-10.3,3.3-18.7,10.1-25L90,81c-5.2,4.8-7.8,11.3-7.7,19.4L74.8,100.4z"/>
</g>
<g>
	<path class="st0" d="M123.2,81.9c-7.2,0-14.1-2.8-19.2-8l5.3-5.3c3.7,3.7,8.6,5.7,13.9,5.7c5.2,0,10.2-2,13.9-5.7l5.3,5.3
		C137.3,79,130.5,81.9,123.2,81.9z"/>
</g>
<g>
	<path class="st2" d="M145.2,49.1c-7.7,12.5-23.8,16.4-23.8,16.4s-3.7-16.2,4-28.6c7.7-12.5,23.8-16.4,23.8-16.4
		S152.8,36.7,145.2,49.1z"/>
	<path class="st0" d="M118.6,70.2l-0.9-3.7c-0.2-0.7-3.9-17.8,4.4-31.5c8.4-13.6,25.3-18,26.1-18.1l3.7-0.9l0.9,3.7
		c0.2,0.7,3.9,17.8-4.4,31.4c-8.4,13.6-25.3,18-26.1,18.1L118.6,70.2z M146.1,25.5c-4.8,1.9-13,6-17.5,13.4
		c-4.6,7.4-4.6,16.5-4.1,21.7c4.8-1.9,12.9-6,17.5-13.4l0,0C146.5,39.7,146.6,30.7,146.1,25.5z"/>
</g>
<g>
	<path class="st0" d="M125.9,76.1h-7.5c0-6.8-2-19.7-15.1-30.2L108,40C123.6,52.5,125.9,68,125.9,76.1z"/>
</g>
</svg>
