<svg xmlns="http://www.w3.org/2000/svg" xmlns:xlink="http://www.w3.org/1999/xlink" width="51" height="71" viewBox="0 0 51 71"><defs><path id="827za" d="M350.02 470.21c0 2.82-.84 5.4-2.52 7.78a15.63 15.63 0 0 1-7.1 5.42 24.5 24.5 0 0 1-5.96 1.43v9.15h-7.34v-8.72h-4.71V494h-7.34v-8.72h-15.58v-7.34h2.07c1.37 0 2.3-.12 2.8-.36.49-.24.83-.58 1.03-1.03.2-.44.3-1.43.3-2.98v-29.58c0-1.57-.1-2.57-.3-3-.2-.44-.55-.78-1.03-1.03-.5-.25-1.43-.38-2.8-.38h-2.07v-7.34h15.58v-8.72h7.34v8.72h4.72v-8.72h7.34v9.03c2.16.26 4.04.68 5.55 1.3 2.6 1.08 4.6 2.63 6 4.64a11.57 11.57 0 0 1 .99 11.62 12.64 12.64 0 0 1-3.2 4.16c-1.4 1.2-3.24 2.2-5.53 3 2.45.62 4.34 1.32 5.63 2.08a11.78 11.78 0 0 1 4.48 4.47 12.63 12.63 0 0 1 1.65 6.4zm-31.38-16.5h5.75c3 0 5.23-.25 6.67-.75a6.44 6.44 0 0 0 3.25-2.3 5.98 5.98 0 0 0 1.1-3.56c0-1.4-.36-2.59-1.04-3.58a5.61 5.61 0 0 0-3-2.1c-1.3-.42-3.62-.64-6.98-.64h-5.75zm17.77 15.1c0-1.57-.36-2.9-1.09-4a6.62 6.62 0 0 0-3.26-2.47c-1.45-.55-3.66-.83-6.64-.83h-6.78v11.48c.02 1.63.08 2.57.19 2.86.12.35.33.6.62.74.29.13 1.06.2 2.34.2h3.83c2.22 0 4.06-.2 5.53-.62a7.48 7.48 0 0 0 5.26-7.35z"/></defs><g><g transform="translate(-299 -423)"><use fill="#fff" xlink:href="#827za"/></g></g></svg>