<?xml version="1.0" encoding="utf-8"?>
<!-- Generator: Adobe Illustrator 21.1.0, SVG Export Plug-In . SVG Version: 6.00 Build 0)  -->
<svg version="1.1" id="Слой_1" xmlns="http://www.w3.org/2000/svg" xmlns:xlink="http://www.w3.org/1999/xlink" x="0px" y="0px"
	 viewBox="0 0 250 250" style="enable-background:new 0 0 250 250;" xml:space="preserve">
<style type="text/css">
	.st0{fill:#98DAF5;}
	.st1{fill:#1C5A74;}
	.st2{fill:#FFFFFF;}
</style>
<g>
	<path class="st0" d="M191.2,41.9v41.3c15.3-5.8,31.8-3.1,46.2,7.4l-3.4-6.2l-11.1-20.6l14.5-14.4C223,38.8,206.5,36,191.2,41.9z"/>
	<path class="st1" d="M237.4,94.3c-0.8,0-1.6-0.2-2.3-0.7c-13.4-9.8-28.6-12.2-42.6-6.9c-1.2,0.4-2.5,0.3-3.5-0.4
		c-1-0.7-1.7-1.9-1.7-3.2V41.9c0-1.6,1-3,2.5-3.6c16.6-6.3,34.3-3.5,49.9,7.9c0.9,0.7,1.5,1.7,1.6,2.8c0.1,1.1-0.3,2.2-1.1,3
		l-12.5,12.4l13.1,24.3c0.9,1.6,0.5,3.5-0.8,4.7C239.2,94,238.3,94.3,237.4,94.3z M207.4,76.3c6.8,0,13.6,1.4,20.2,4.2l-8.1-15.1
		c-0.8-1.5-0.5-3.3,0.7-4.5l11.2-11.1c-11.7-7.2-24.4-9-36.4-5.2v33.3C199.1,76.8,203.3,76.3,207.4,76.3z"/>
</g>
<g>
	<path class="st0" d="M141.3,29.1v41.3c15.7-7.8,34.4-7.5,49.8,1V30.1C175.7,21.6,157,21.2,141.3,29.1z"/>
	<path class="st1" d="M191.2,75.2c-0.6,0-1.3-0.2-1.9-0.5c-14.3-7.9-31.6-8.3-46.3-1c-1.2,0.6-2.6,0.5-3.7-0.2
		c-1.1-0.7-1.8-1.9-1.8-3.3V29.1c0-1.5,0.8-2.8,2.1-3.4c16.9-8.4,36.9-8,53.4,1.1c1.2,0.7,2,2,2,3.4v41.3c0,1.4-0.7,2.6-1.9,3.3
		C192.5,75,191.8,75.2,191.2,75.2z M165.3,60.8c7.5,0,15,1.5,22.1,4.4V32.4c-13.2-6.5-28.7-6.9-42.2-0.9v33
		C151.7,62.1,158.5,60.8,165.3,60.8z"/>
</g>
<g>
	<rect x="137.5" y="13.9" class="st1" width="7.7" height="222.3"/>
</g>
<g>
	<path class="st2" d="M78.1,81.9c9.9,0,17.2-8.1,17.2-18v-6c0-10-7.4-18-17.2-18c-9.9,0-17.2,8.1-17.2,18v6
		C60.9,73.8,68.2,81.9,78.1,81.9z"/>
	<path class="st1" d="M78.1,85.7C66.3,85.7,57,76.1,57,63.9v-6C57,45.6,66.3,36,78.1,36s21.1,9.6,21.1,21.9v6
		C99.2,76.1,89.9,85.7,78.1,85.7z M78.1,43.6c-7.5,0-13.4,6.2-13.4,14.2v6c0,8,5.9,14.2,13.4,14.2s13.4-6.2,13.4-14.2v-6
		C91.5,49.9,85.6,43.6,78.1,43.6z"/>
</g>
<g>
	<path class="st2" d="M68.5,94.3c-18.2,0-30.7,5.8-30.7,23v38.3c0,8.2,7.1,15.3,15.3,15.3l3.8,5v60.1h46V117.3v-3.8h34.5
		c11.6,0,19.2-10.7,19.2-19.2C150.7,94.3,75.6,94.3,68.5,94.3z"/>
</g>
<g>
	<path class="st1" d="M106.8,236.1h-7.7V109.7h38.3c7.7,0,13-5.9,14.7-11.5H68.5c-23.8,0-26.8,10.2-26.8,19.2v38.3
		c0,6.1,5.4,11.5,11.5,11.5v7.7c-10.4,0-19.2-8.8-19.2-19.2v-38.3c0-17.8,11.6-26.8,34.5-26.8h92v3.8c0,10.9-9.4,23-23,23h-30.7
		V236.1z"/>
</g>
<g>
	<rect x="53.2" y="117.3" class="st1" width="7.7" height="118.8"/>
</g>
<g>
	<rect x="76.2" y="167.2" class="st1" width="7.7" height="69"/>
</g>
</svg>
