<?xml version="1.0" encoding="utf-8"?>
<!-- Generator: Adobe Illustrator 21.1.0, SVG Export Plug-In . SVG Version: 6.00 Build 0)  -->
<svg version="1.1" id="Слой_1" xmlns="http://www.w3.org/2000/svg" xmlns:xlink="http://www.w3.org/1999/xlink" x="0px" y="0px"
	 viewBox="0 0 250 250" style="enable-background:new 0 0 250 250;" xml:space="preserve">
<style type="text/css">
	.st0{fill:#98DAF5;}
	.st1{fill:#FFFFFF;}
	.st2{fill:#1C5A74;}
</style>
<g>
	<rect x="203" y="31.4" class="st0" width="23.4" height="148.2"/>
</g>
<g>
	<path class="st1" d="M43.1,11.9c-10.8,0-19.5,8.7-19.5,19.5v156h156V11.9H43.1z"/>
</g>
<g>
	<path class="st2" d="M27.5,187.4h-7.8v-156C19.7,18.5,30.2,8,43.1,8h140.4v159.9h-7.8V15.8H43.1c-8.6,0-15.6,7-15.6,15.6V187.4z"/>
</g>
<g>
	<path class="st1" d="M43.1,206.9c-10.8,0-19.5-8.7-19.5-19.5l0,0c0-10.8,8.7-19.5,19.5-19.5h136.5v39H43.1z"/>
	<path class="st2" d="M183.5,210.8H43.1c-12.9,0-23.4-10.5-23.4-23.4c0-12.9,10.5-23.4,23.4-23.4h140.4V210.8z M43.1,171.8
		c-8.6,0-15.6,7-15.6,15.6c0,8.6,7,15.6,15.6,15.6h132.6v-31.2H43.1z"/>
</g>
<g>
	<polygon class="st2" points="167.9,195.2 35.3,195.2 35.3,187.4 160.1,187.4 160.1,171.8 167.9,171.8 	"/>
</g>
<g>
	<polygon class="st0" points="54.8,183.5 54.8,234.2 70.4,222.5 86,234.2 86,183.5 	"/>
	<path class="st2" d="M89.9,242l-19.5-14.6L50.9,242v-62.4h39V242z M70.4,217.6l11.7,8.8v-39H58.7v39L70.4,217.6z"/>
</g>
<g>
	<rect x="39.2" y="23.6" class="st2" width="7.8" height="132.6"/>
</g>
<g>
	<path class="st2" d="M214.7,215.6l-15.6-31.2V15.8c0-4.3,3.5-7.8,7.8-7.8h15.6c4.3,0,7.8,3.5,7.8,7.8v168.6L214.7,215.6z
		 M206.9,182.6l7.8,15.6l7.8-15.6V15.8h-15.6V182.6z"/>
</g>
<g>
	<rect x="203" y="175.7" class="st2" width="23.4" height="7.8"/>
</g>
<g>
	<rect x="203" y="27.5" class="st2" width="23.4" height="7.8"/>
</g>
<g>
	<rect x="82.1" y="58.3" class="st0" width="58.5" height="31.2"/>
	<path class="st2" d="M144.5,93.4H78.2v-39h66.3V93.4z M86,85.6h50.7V62.2H86V85.6z"/>
</g>
</svg>
