<?xml version="1.0" encoding="utf-8"?>
<!-- Generator: Adobe Illustrator 21.1.0, SVG Export Plug-In . SVG Version: 6.00 Build 0)  -->
<svg version="1.1" id="Слой_1" xmlns="http://www.w3.org/2000/svg" xmlns:xlink="http://www.w3.org/1999/xlink" x="0px" y="0px"
	 viewBox="0 0 250 250" style="enable-background:new 0 0 250 250;" xml:space="preserve">
<style type="text/css">
	.st0{fill:#FFFFFF;}
	.st1{fill:#98DAF5;}
	.st2{fill:#1C5A74;}
</style>
<g>
	<path class="st0" d="M194.5,87.4h-139c-15.3,0-45,8-45,24.2V161c0,9.5,6.8,16.5,16.4,16.5l4.1-0.2v57.3h40.9h106.3h40.9v-57.3
		l4.1,0.2c9.5,0,16.4-7,16.4-16.5v-49.4C239.5,95.4,209.8,87.4,194.5,87.4z"/>
</g>
<g>
	<path class="st1" d="M125,71c-15.3,0-45,8.4-45,24.5V145c0,9.5,6.8,16,16.4,16h4.1v73.6h49.1V161h4.1c9.5,0,16.4-6.5,16.4-16V95.5
		C170,79.4,140.3,71,125,71z"/>
</g>
<g>
	<path class="st2" d="M153.6,165.4v-8.2c7.2,0,12.3-5,12.3-12.3V95.5c0-12.5-26.9-20.4-40.9-20.4s-40.9,8-40.9,20.4V145
		c0,7.2,5,12.3,12.3,12.3v8.2c-11.8,0-20.4-8.6-20.4-20.4V95.5c0-19.1,31.5-28.6,49.1-28.6s49.1,9.6,49.1,28.6V145
		C174.1,156.8,165.5,165.4,153.6,165.4z"/>
</g>
<g>
	<path class="st0" d="M125,58.7c11.4,0,20.4-9.3,20.4-20.9v-7c0-11.5-9-20.9-20.4-20.9c-11.4,0-20.4,9.3-20.4,20.9v7
		C104.6,49.3,113.6,58.7,125,58.7z"/>
	<path class="st2" d="M125,62.8c-13.5,0-24.5-11.2-24.5-25v-7c0-13.8,11-25,24.5-25s24.5,11.2,24.5,25v7
		C149.5,51.6,138.5,62.8,125,62.8z M125,14.1c-9,0-16.4,7.5-16.4,16.8v7c0,9.4,7.2,16.8,16.4,16.8s16.4-7.4,16.4-16.8v-7
		C141.4,21.6,134,14.1,125,14.1z"/>
</g>
<g>
	<path class="st2" d="M223.2,181.6v-8.2c7.2,0,12.3-5.1,12.3-12.4v-49.4c0-12.5-26.5-20.1-40.9-20.1h-16.4v-8.2h16.4
		c16.6,0,49.1,8.5,49.1,28.3V161C243.6,172.7,234.8,181.6,223.2,181.6z"/>
</g>
<g>
	<rect x="215" y="128.3" class="st2" width="8.2" height="106.3"/>
</g>
<g>
	<path class="st0" d="M194.5,74.7c11.4,0,20.4-9.3,20.4-20.9v-7c0-11.5-9-20.9-20.4-20.9c-11.4,0-20.4,9.3-20.4,20.9v7
		C174.1,65.4,183.1,74.7,194.5,74.7z"/>
	<path class="st2" d="M194.5,78.8c-13.5,0-24.5-11.2-24.5-25v-7c0-13.8,11-25,24.5-25c13.5,0,24.5,11.2,24.5,25v7
		C219.1,67.6,208.1,78.8,194.5,78.8z M194.5,30.1c-9.2,0-16.4,7.4-16.4,16.8v7c0,9.4,7.2,16.8,16.4,16.8c9.2,0,16.4-7.4,16.4-16.8
		v-7C210.9,37.5,203.7,30.1,194.5,30.1z"/>
</g>
<g>
	<path class="st2" d="M26.8,181.6c-11.7,0-20.4-8.9-20.4-20.6v-49.4c0-19.7,32.5-28.3,49.1-28.3h16.4v8.2H55.5
		c-14.4,0-40.9,7.6-40.9,20.1V161c0,7.3,5,12.4,12.3,12.4V181.6z"/>
</g>
<g>
	<rect x="26.8" y="128.3" class="st2" width="8.2" height="106.3"/>
</g>
<g>
	<path class="st0" d="M55.5,74.7C44.1,74.7,35,65.4,35,53.8v-7c0-11.5,9-20.9,20.4-20.9c11.4,0,20.4,9.3,20.4,20.9v7
		C75.9,65.4,66.9,74.7,55.5,74.7z"/>
	<path class="st2" d="M55.5,78.8c-13.5,0-24.5-11.2-24.5-25v-7c0-13.8,11-25,24.5-25S80,33.1,80,46.9v7C80,67.6,69,78.8,55.5,78.8z
		 M55.5,30.1c-9.2,0-16.4,7.4-16.4,16.8v7c0,9.4,7.2,16.8,16.4,16.8s16.4-7.4,16.4-16.8v-7C71.8,37.5,64.6,30.1,55.5,30.1z"/>
</g>
<g>
	<rect x="145.4" y="111.9" class="st2" width="8.2" height="122.7"/>
</g>
<g>
	<rect x="96.4" y="111.9" class="st2" width="8.2" height="122.7"/>
</g>
<g>
	<rect x="120.9" y="156.9" class="st2" width="8.2" height="77.7"/>
</g>
</svg>
