<svg xmlns="http://www.w3.org/2000/svg" width="22.4" height="21.7" viewBox="0 0 32 31">
  <defs>
    <style>
      .cls-1 {
        fill: #110f46;
        fill-rule: evenodd;
      }
    </style>
  </defs>
  <path id="in" class="cls-1" d="M2329,13679v12h-6.86v-11.2c0-2.8-.99-4.7-3.47-4.7a3.781,3.781,0,0,0-3.52,2.5,5.146,5.146,0,0,0-.23,1.7v11.7h-6.86s0.09-19,0-20.9h6.86v2.9c-0.01.1-.03,0.1-0.05,0.1h0.05v-0.1a6.812,6.812,0,0,1,6.18-3.4C2325.62,13669.6,2329,13672.6,2329,13679Zm-28.12-19a3.622,3.622,0,0,0-3.88,3.6,3.567,3.567,0,0,0,3.79,3.6h0.05A3.609,3.609,0,1,0,2300.88,13660Zm-3.47,31h6.86v-20.9h-6.86v20.9Z" transform="translate(-2297 -13660)"/>
</svg>
