<?xml version="1.0" encoding="utf-8"?>
<!-- Generator: Adobe Illustrator 21.1.0, SVG Export Plug-In . SVG Version: 6.00 Build 0)  -->
<svg version="1.1" id="Слой_1" xmlns="http://www.w3.org/2000/svg" xmlns:xlink="http://www.w3.org/1999/xlink" x="0px" y="0px"
	 viewBox="0 0 250 250" style="enable-background:new 0 0 250 250;" xml:space="preserve">
<style type="text/css">
	.st0{fill:#00B5FF;}
	.st1{opacity:0.4;}
	.st2{fill:#DAE1E5;}
	.st3{fill:#FFFFFF;}
</style>
<g id="XMLID_3190_" class="st1">
	<path class="st2" d="M226.9,151v74.8c0,2-1.6,3.6-3.6,3.6H102.6v3.9c0,2.1,1.7,3.9,3.9,3.9h124.2c3,0,5.5-2.4,5.5-5.5v-76.1
		c0-2.5-2.1-4.6-4.6-4.6H226.9z"/>
</g>
<g id="XMLID_327_">
	<path class="st0" d="M218.1,229.4H111.4c-4.9,0-8.8-4-8.8-8.8v-60.7c0-4.9,4-8.8,8.8-8.8h106.6c4.9,0,8.8,4,8.8,8.8v60.7
		C226.9,225.4,223,229.4,218.1,229.4z"/>
</g>
<g>
	<g id="XMLID_360_">
		<g>
			<path class="st3" d="M226.9,198.7H102.6c-0.9,0-1.6-0.7-1.6-1.6s0.7-1.6,1.6-1.6h124.3c0.9,0,1.6,0.7,1.6,1.6
				S227.8,198.7,226.9,198.7z"/>
		</g>
	</g>
	<g id="XMLID_359_">
		<g>
			<path class="st3" d="M226.9,212.7H102.6c-0.9,0-1.6-0.7-1.6-1.6s0.7-1.6,1.6-1.6h124.3c0.9,0,1.6,0.7,1.6,1.6
				S227.8,212.7,226.9,212.7z"/>
		</g>
	</g>
	<g id="XMLID_357_">
		<g>
			<path class="st3" d="M148.5,182.2h-30c-0.9,0-1.6-0.7-1.6-1.6v-15.5c0-0.9,0.7-1.6,1.6-1.6h30c0.9,0,1.6,0.7,1.6,1.6v15.5
				C150.1,181.5,149.4,182.2,148.5,182.2z M120.1,179h26.8v-12.2h-26.8V179z"/>
		</g>
	</g>
</g>
<g id="XMLID_3197_" class="st1">
	<path class="st2" d="M147,56v95h-9.9V41.1c2,0.8,3.8,2,5.3,3.5C145.2,47.5,147,51.5,147,56z"/>
</g>
<g id="XMLID_3195_">
	<path class="st3" d="M223.4,231H106.2c-2.9,0-5.2-2.3-5.2-5.2v-71.2c0-2.9,2.3-5.2,5.2-5.2h117.2c2.9,0,5.2,2.3,5.2,5.2v71.2
		C228.6,228.7,226.2,231,223.4,231z M106.2,152.6c-1.1,0-2,0.9-2,2v71.2c0,1.1,0.9,2,2,2h117.2c1.1,0,2-0.9,2-2v-71.2
		c0-1.1-0.9-2-2-2H106.2z"/>
</g>
<g id="XMLID_213_">
	<path class="st3" d="M90.9,45.4H60.6c-0.9,0-1.6-0.7-1.6-1.6V36c0-0.9,0.7-1.6,1.6-1.6h25.5c0.9,0,1.6,0.7,1.6,1.6
		c0,0.9-0.7,1.6-1.6,1.6H62.2v4.5h28.7c0.9,0,1.6,0.7,1.6,1.6C92.6,44.7,91.8,45.4,90.9,45.4z"/>
</g>
<g id="XMLID_354_">
	<path class="st3" d="M102.6,209.6H22.3c-0.9,0-1.6-0.7-1.6-1.6l0-154.3c0-0.4,0.2-0.8,0.5-1.1c0.3-0.3,0.7-0.5,1.1-0.5h114.8
		c0.9,0,1.6,0.7,1.6,1.6V151c0,0.9-0.7,1.6-1.6,1.6s-1.6-0.7-1.6-1.6V55.4H23.9l0,151h78.7c0.9,0,1.6,0.7,1.6,1.6
		S103.5,209.6,102.6,209.6z"/>
</g>
<g id="XMLID_355_">
	<path class="st3" d="M94.9,231.8H41.3c-0.7,0-1.3,0-1.9-0.1c-0.1,0-0.1,0-0.2,0l-0.3,0c-0.4,0-0.9-0.1-1.3-0.2
		c-0.4-0.1-1-0.2-1.5-0.3c-0.6-0.1-1.1-0.3-1.5-0.4c0,0,0,0,0,0c0,0-0.1,0-0.1,0c-0.1,0-0.3-0.1-0.4-0.1c-0.3-0.1-0.6-0.2-0.9-0.3
		c-0.2-0.1-0.3-0.1-0.5-0.2c-0.5-0.2-1-0.5-1.4-0.7c-1.9-0.9-3.6-2.1-5-3.5c-0.2-0.2-0.4-0.3-0.5-0.5c-0.5-0.5-0.9-1-1.4-1.6
		c-3.6-4.6-3.6-10-3.5-15.2l0-0.9c0-0.9,0.7-1.6,1.6-1.6s1.6,0.7,1.6,1.6l0,0.9c0,4.8,0,9.4,2.9,13.2c0.4,0.5,0.7,0.9,1.1,1.3
		c0.2,0.2,0.3,0.3,0.4,0.4c1.2,1.2,2.7,2.2,4.3,3c0.4,0.2,0.8,0.4,1.2,0.6c0.1,0.1,0.3,0.1,0.4,0.1c0,0,0.1,0,0.1,0
		c0.2,0.1,0.5,0.2,0.8,0.3c0.1,0,0.3,0.1,0.4,0.1c0,0,0.1,0,0.1,0c0.4,0.1,0.8,0.2,1.3,0.3c0.5,0.1,1,0.2,1.3,0.3
		c0.4,0.1,0.7,0.1,1.1,0.1l0.4,0c0,0,0.1,0,0.1,0c0.4,0,1,0.1,1.6,0.1h53.6c0.9,0,1.6,0.7,1.6,1.6C96.5,231.1,95.8,231.8,94.9,231.8
		z M34.6,230.8C34.6,230.8,34.6,230.8,34.6,230.8C34.6,230.8,34.6,230.8,34.6,230.8z"/>
</g>
<g id="XMLID_3196_">
	<path class="st3" d="M137.1,55.4H22.3c-0.9,0-1.6-0.7-1.6-1.6V42.4c0-9.8,8-17.9,17.9-17.9h82.3c9.8,0,17.9,8,17.9,17.9v11.4
		C138.7,54.6,138,55.4,137.1,55.4z M23.9,52.1h111.6v-9.8c0-8.1-6.6-14.6-14.6-14.6H38.5c-8.1,0-14.6,6.6-14.6,14.6V52.1z"/>
</g>
<g id="XMLID_771_">
	<g id="XMLID_834_">
		<path class="st3" d="M79.9,156.2c-3.6,0-6.4-2.9-6.4-6.4v-1.6c-3.5-0.8-6.6-2.3-9.1-4.4c-0.7-0.6-0.8-1.6-0.2-2.3
			c0.6-0.7,1.6-0.8,2.3-0.2c2.4,2,5.3,3.3,8.8,3.9c0.8,0.1,1.4,0.8,1.4,1.6v3c0,1.8,1.4,3.2,3.2,3.2c1.8,0,3.2-1.4,3.2-3.2v-3
			c0-0.8,0.6-1.5,1.3-1.6c3.4-0.6,6.1-1.8,8.2-3.7c2.5-2.3,3.7-5.3,3.7-9c0-3.7-1.2-6.4-3.9-8.8c-0.7-0.6-0.7-1.6-0.1-2.3
			c0.6-0.7,1.6-0.7,2.3-0.1c3.4,3.1,5,6.5,5,11.2c0,4.7-1.6,8.5-4.8,11.4c-2.3,2.1-5.1,3.5-8.5,4.3v1.7
			C86.4,153.3,83.5,156.2,79.9,156.2z"/>
	</g>
	<g id="XMLID_833_">
		<path class="st3" d="M93.6,124c-0.4,0-0.8-0.1-1.1-0.4c-2.4-2.1-6.1-4-11.2-5.6c-2.2-0.7-4.9-2.5-5.7-5.3
			c-0.5-1.7-0.2-3.6,0.8-4.9c0.9-1.3,2.3-1.9,4-1.9c0.9,0,1.6,0.7,1.6,1.6s-0.7,1.6-1.6,1.6c-0.6,0-1,0.2-1.4,0.6
			c-0.4,0.5-0.5,1.3-0.3,2.1c0.5,1.6,2.3,2.7,3.6,3.2c5.5,1.8,9.5,3.8,12.3,6.3c0.7,0.6,0.7,1.6,0.2,2.3
			C94.5,123.8,94.1,124,93.6,124z"/>
	</g>
	<g id="XMLID_832_">
		<path class="st3" d="M79.9,137.8c-0.9,0-1.6-0.7-1.6-1.6c0-0.9,0.7-1.6,1.6-1.6c0.9,0,1.6-0.7,1.6-1.5c0-0.2,0-0.9-1.3-1.9
			c-1.9-1.4-4.1-2.4-6.4-3.5c-3-1.4-6.1-2.8-8.7-5.2c-2.9-2.7-4.4-6.7-4.4-11.3c0-4.7,1.6-8.5,4.8-11.4c2.3-2.1,5.1-3.5,8.5-4.3
			v-1.7c0-3.6,2.9-6.4,6.4-6.4s6.4,2.9,6.4,6.4v1.6c3.5,0.8,6.6,2.3,9.1,4.4c0.7,0.6,0.8,1.6,0.2,2.3c-0.6,0.7-1.6,0.8-2.3,0.2
			c-2.4-2-5.3-3.3-8.8-3.9c-0.8-0.1-1.4-0.8-1.4-1.6v-3c0-1.8-1.4-3.2-3.2-3.2s-3.2,1.4-3.2,3.2v3c0,0.8-0.6,1.5-1.3,1.6
			c-3.4,0.6-6.1,1.8-8.2,3.7c-2.5,2.3-3.7,5.3-3.7,9c0,2.6,0.6,6.3,3.4,8.9c2.2,2.1,4.9,3.3,7.8,4.6c2.4,1.1,4.8,2.2,7,3.8
			c1.7,1.3,2.6,2.8,2.6,4.5C84.7,135.7,82.6,137.8,79.9,137.8z"/>
	</g>
</g>
<g id="XMLID_352_">
	<path class="st3" d="M107.9,46.4c-3.6,0-6.5-2.9-6.5-6.5c0-3.6,2.9-6.5,6.5-6.5s6.5,2.9,6.5,6.5C114.4,43.5,111.5,46.4,107.9,46.4z
		 M107.9,36.7c-1.8,0-3.2,1.5-3.2,3.2c0,1.8,1.5,3.2,3.2,3.2s3.2-1.5,3.2-3.2C111.1,38.1,109.7,36.7,107.9,36.7z"/>
</g>
</svg>
