<?xml version="1.0" encoding="utf-8"?>
<!-- Generator: Adobe Illustrator 21.1.0, SVG Export Plug-In . SVG Version: 6.00 Build 0)  -->
<svg version="1.1" id="Слой_1" xmlns="http://www.w3.org/2000/svg" xmlns:xlink="http://www.w3.org/1999/xlink" x="0px" y="0px"
	 viewBox="0 0 250 250" style="enable-background:new 0 0 250 250;" xml:space="preserve">
<style type="text/css">
	.st0{fill:#FFB5B5;}
	.st1{fill:#FFFFFF;}
	.st2{fill:#D92324;}
</style>
<g>
	<rect x="74.7" y="68" class="st0" width="7.5" height="22.6"/>
</g>
<g>
	<rect x="67.2" y="75.5" class="st0" width="22.6" height="7.5"/>
</g>
<g>
	<rect x="229" y="101.8" class="st0" width="7.5" height="22.6"/>
</g>
<g>
	<rect x="221.4" y="109.4" class="st0" width="22.6" height="7.5"/>
</g>
<g>
	<path class="st1" d="M44.6,214.7c0,0,64.9,0,79,0c10.8,0,49.9-11.6,54.1-14.7c4.1-2.9,29.5-31.9,35.8-40.5c-1.7-4.1-7.8-8-16.4-7
		c-9.9,1.2-22.4,20-22.8,20.4l-30.3,6.8c-1-0.2-11.7-3.6-21.9-6.3c-3.5-0.9-9.3-8.8-9.3-9.4c0-3.7,1.3-3.6,7.6-6.9
		c4.2-2.2,17.1-4.5,21.7-14.9c4.2-9.5,1.5-18.8-15.5-12.1c-7,2.8-37.2,11.4-50.2,16.7c-5,4.8-12.1,15.2-17.2,18.9H44.6V214.7z"/>
	<path class="st2" d="M123.6,218.5H40.9V162h17.1c2.5-2.2,5.7-6,8.5-9.5c2.6-3.2,5.1-6.2,7.4-8.4l0.5-0.5l0.7-0.3
		c7.8-3.2,21.7-7.5,32.8-11c7.8-2.5,14.6-4.6,17.4-5.7c9.1-3.6,15.7-3.4,19.5,0.6c3.5,3.6,3.8,9.6,0.8,16.5
		c-4.2,9.7-14.2,13.3-20.1,15.5c-1.3,0.5-2.6,0.9-3.3,1.3c-1.1,0.6-2.1,1.1-3,1.5c-1,0.5-2,1-2.5,1.3c1.4,2.1,4.9,6.1,6.4,6.5
		c7.2,1.9,14.8,4.2,18.9,5.4c0.9,0.3,1.6,0.5,2.2,0.7l28-6.3c9.4-13,17.7-19.9,24.6-20.7c10.4-1.2,18,3.8,20.3,9.3l0.8,1.9l-1.2,1.7
		c-5.9,8.1-31.8,37.9-36.6,41.3C175,206.6,134.9,218.5,123.6,218.5z M48.4,210.9h75.2c10.4,0,48.2-11.4,52-14
		c3.2-2.3,25.2-27.2,33.3-37.6c-1.9-2-5.9-3.7-11.4-3.1c-2.2,0.2-8.4,2.5-19.6,18.1c-0.6,0.8-0.7,1-1.1,1.3l-0.7,0.7l-32.1,7.2
		l-0.8-0.2c-0.3-0.1-1.5-0.4-3.4-1c-4-1.2-11.5-3.5-18.6-5.3c-4.4-1.1-12.1-10-12.1-13.1c0-5.4,2.9-6.8,6.9-8.8
		c0.8-0.4,1.7-0.9,2.8-1.4c1.1-0.6,2.5-1.1,4.2-1.7c5.1-1.9,12.9-4.7,15.8-11.4c1.9-4.3,1.7-7.3,0.7-8.3c-1.1-1.1-4.7-1.4-11.4,1.2
		c-3,1.2-9.9,3.4-17.9,5.9c-10.7,3.4-23.9,7.5-31.5,10.5c-1.8,1.9-4,4.5-6.3,7.2c-3.7,4.4-7.4,9-10.8,11.5l-1,0.7H48.4V210.9z"/>
</g>
<g>
	<circle class="st0" cx="126.4" cy="84.6" r="18"/>
	<path class="st2" d="M126.4,106.3c-12,0-21.7-9.7-21.7-21.7s9.7-21.7,21.7-21.7c12,0,21.7,9.7,21.7,21.7S138.4,106.3,126.4,106.3z
		 M126.4,70.4c-7.8,0-14.2,6.4-14.2,14.2s6.4,14.2,14.2,14.2c7.8,0,14.2-6.4,14.2-14.2S134.3,70.4,126.4,70.4z"/>
</g>
<g>
	<circle class="st0" cx="183.7" cy="46.6" r="18"/>
	<path class="st2" d="M183.7,68.4c-12,0-21.7-9.7-21.7-21.7s9.7-21.7,21.7-21.7c12,0,21.7,9.7,21.7,21.7S195.7,68.4,183.7,68.4z
		 M183.7,32.4c-7.8,0-14.2,6.4-14.2,14.2s6.4,14.2,14.2,14.2c7.8,0,14.2-6.4,14.2-14.2S191.5,32.4,183.7,32.4z"/>
</g>
<g>
	<circle class="st0" cx="177.1" cy="119.7" r="18"/>
	<path class="st2" d="M177.1,141.5c-12,0-21.7-9.7-21.7-21.7c0-12,9.7-21.7,21.7-21.7c12,0,21.7,9.7,21.7,21.7
		C198.8,131.7,189.1,141.5,177.1,141.5z M177.1,105.5c-7.8,0-14.2,6.4-14.2,14.2c0,7.8,6.4,14.2,14.2,14.2c7.8,0,14.2-6.4,14.2-14.2
		C191.3,111.9,185,105.5,177.1,105.5z"/>
</g>
<g>
	<rect x="10.8" y="147" class="st0" width="37.6" height="79"/>
	<path class="st2" d="M52.1,229.7H7v-86.5h45.1V229.7z M14.5,222.2h30.1v-71.5H14.5V222.2z"/>
</g>
<g>
	<rect x="25.8" y="162" class="st2" width="7.5" height="11.3"/>
</g>
<g>
	<rect x="123.6" y="49.2" class="st2" width="7.5" height="30.1"/>
</g>
<g>
	<rect x="123.6" y="34.1" class="st2" width="7.5" height="7.5"/>
</g>
<g>
	<rect x="217.7" y="30.4" class="st0" width="7.5" height="56.4"/>
</g>
</svg>
