<?xml version="1.0" encoding="utf-8"?>
<!-- Generator: Adobe Illustrator 21.1.0, SVG Export Plug-In . SVG Version: 6.00 Build 0)  -->
<svg version="1.1" id="Слой_1" xmlns="http://www.w3.org/2000/svg" xmlns:xlink="http://www.w3.org/1999/xlink" x="0px" y="0px"
	 viewBox="0 0 250 250" style="enable-background:new 0 0 250 250;" xml:space="preserve">
<style type="text/css">
	.st0{fill:#483D95;}
	.st1{fill:#3B517F;}
	.st2{fill:#E8E8E9;}
</style>
<g>
	<path class="st0" d="M229.1,224.3H59.3V32.6h169.8V224.3z M70.2,213.4h147.9V43.5H70.2V213.4z"/>
</g>
<g>
	<rect x="92.1" y="70.9" class="st1" width="43.8" height="11"/>
</g>
<g>
	<rect x="152.4" y="98.3" class="st0" width="49.3" height="11"/>
</g>
<g>
	<rect x="152.4" y="120.2" class="st0" width="49.3" height="11"/>
</g>
<g>
	<rect x="152.4" y="142.2" class="st0" width="49.3" height="11"/>
</g>
<g>
	<path class="st2" d="M26.4,27.1h81.5c12.5,0,22.6,12.3,22.6,27.4v137c0-15.1-10.1-27.4-22.6-27.4H26.4V27.1z"/>
	<path class="st0" d="M136,191.5h-11c0-12.1-7.7-21.9-17.2-21.9H20.9V21.6h86.9c15.5,0,28.1,14.7,28.1,32.9V191.5z M31.9,158.6h76
		c6.5,0,12.4,2.6,17.2,6.8V54.5c0-12.1-7.7-21.9-17.2-21.9h-76V158.6z"/>
</g>
<g>
	<path class="st0" d="M103.1,224.3v-11c12.1,0,21.9-9.8,21.9-21.9h11C136,209.6,121.2,224.3,103.1,224.3z"/>
</g>
</svg>
