<?xml version="1.0" encoding="utf-8"?>
<!-- Generator: Adobe Illustrator 21.1.0, SVG Export Plug-In . SVG Version: 6.00 Build 0)  -->
<svg version="1.1" id="Слой_1" xmlns="http://www.w3.org/2000/svg" xmlns:xlink="http://www.w3.org/1999/xlink" x="0px" y="0px"
	 viewBox="0 0 250 250" style="enable-background:new 0 0 250 250;" xml:space="preserve">
<style type="text/css">
	.st0{fill:#00B5FF;}
	.st1{fill:#06B4FD;}
	.st2{fill:#FFFFFF;}
	.st3{opacity:0.4;}
	.st4{fill:#DAE1E5;}
</style>
<g id="XMLID_361_">
	<circle class="st1" cx="183.4" cy="175.3" r="36.4"/>
</g>
<g id="XMLID_3117_">
	<path class="st2" d="M196.9,119.7c-0.9,0-1.6-0.7-1.6-1.6c0-6.6-5.3-11.9-11.9-11.9c-6.6,0-11.9,5.3-11.9,11.9
		c0,0.9-0.7,1.6-1.6,1.6s-1.6-0.7-1.6-1.6c0-8.4,6.8-15.1,15.1-15.1c8.4,0,15.1,6.8,15.1,15.1C198.5,118.9,197.8,119.7,196.9,119.7z
		"/>
</g>
<g id="XMLID_3115_">
	<g id="XMLID_3116_">
		<path class="st2" d="M138.1,149.5c-0.3,0-0.7-0.1-1-0.3l-4.5-3.5c-1.5-1.2-2.5-2.9-2.8-4.8c-0.3-1.9,0.3-3.8,1.5-5.4
			c1.2-1.5,2.9-2.5,4.8-2.8c1.9-0.3,3.8,0.3,5.4,1.5l4.5,3.5c0.7,0.6,0.8,1.6,0.3,2.3c-0.6,0.7-1.6,0.8-2.3,0.3l-4.5-3.5
			c-0.9-0.7-1.9-0.9-3-0.8c-1.1,0.1-2,0.7-2.7,1.5c-0.7,0.9-0.9,1.9-0.8,3c0.1,1.1,0.7,2,1.5,2.7l4.5,3.5c0.7,0.6,0.8,1.6,0.3,2.3
			C139,149.3,138.5,149.5,138.1,149.5z"/>
	</g>
</g>
<g>
	<path class="st2" d="M183.4,213.3c-21,0-38-17.1-38-38s17.1-38,38-38c21,0,38,17.1,38,38S204.3,213.3,183.4,213.3z M183.4,140.5
		c-19.2,0-34.8,15.6-34.8,34.8s15.6,34.8,34.8,34.8c19.2,0,34.8-15.6,34.8-34.8S202.5,140.5,183.4,140.5z M201.2,188.9
		c-0.6,0-1.1-0.1-1.6-0.4l-9.4-5.3c-0.6,0.7-1.4,1.2-2.2,1.7c-1.5,0.9-3.2,1.3-5,1.3c-3.6,0-6.9-1.9-8.7-5c-1.3-2.3-1.7-5-1-7.6
		c0.7-2.6,2.3-4.7,4.7-6.1c0.6-0.3,1.1-0.6,1.7-0.8V151c0-1.8,1.5-3.3,3.3-3.3s3.3,1.5,3.3,3.3v15.7c2.3,0.8,4.2,2.3,5.4,4.5
		c1.1,1.8,1.5,3.9,1.3,6l9.9,5.6c0.8,0.4,1.3,1.1,1.5,2c0.2,0.8,0.1,1.7-0.3,2.5l0,0C203.5,188.3,202.4,188.9,201.2,188.9z
		 M201.2,185.7L201.2,185.7L201.2,185.7L201.2,185.7l-10.9-6.1c-0.6-0.4-1-1.1-0.8-1.8c0.4-1.7,0.1-3.4-0.7-4.9
		c-0.9-1.6-2.4-2.7-4.1-3.1c-0.1,0-0.2,0-0.3-0.1l-0.1,0c-0.8-0.2-1.3-0.8-1.3-1.6v0c0,0.8-0.5,1.4-1.3,1.6
		c-0.7,0.1-1.4,0.4-2.1,0.8c-1.6,0.9-2.7,2.4-3.1,4.1c-0.5,1.7-0.2,3.6,0.7,5.1c1.2,2.1,3.4,3.4,5.9,3.4c1.2,0,2.3-0.3,3.4-0.9
		c0.8-0.5,1.5-1.1,2.1-1.9c0.5-0.7,1.4-0.9,2.1-0.5L201.2,185.7L201.2,185.7z"/>
</g>
<g id="XMLID_3109_">
	<g id="XMLID_3110_">
		<path class="st2" d="M227.8,149.5c-0.5,0-1-0.2-1.3-0.6c-0.5-0.7-0.4-1.7,0.3-2.3l4.5-3.5c1.8-1.4,2.1-3.9,0.7-5.6
			c-1.4-1.8-3.9-2.1-5.6-0.7l-4.5,3.5c-0.7,0.5-1.7,0.4-2.3-0.3c-0.5-0.7-0.4-1.7,0.3-2.3l4.5-3.5c1.5-1.2,3.5-1.7,5.4-1.5
			c1.9,0.3,3.6,1.2,4.8,2.8c2.5,3.2,1.9,7.8-1.3,10.2l-4.5,3.5C228.5,149.4,228.1,149.5,227.8,149.5z"/>
	</g>
</g>
<g id="XMLID_3106_">
	<path class="st2" d="M228.7,124.1c-0.9,0-1.6-0.7-1.6-1.6c0-27.6-10.7-53.5-30.2-73c-19.5-19.5-45.4-30.2-73-30.2
		c-16.3,0-31.9,3.7-46.3,10.9c-0.8,0.4-1.8,0.1-2.2-0.7c-0.4-0.8-0.1-1.8,0.7-2.2c14.9-7.5,31-11.3,47.8-11.3
		c28.5,0,55.2,11.1,75.3,31.2c20.1,20.1,31.2,46.9,31.2,75.3C230.3,123.3,229.6,124.1,228.7,124.1z"/>
</g>
<g>
	<g id="XMLID_3105_">
		<path class="st2" d="M65.8,23.8c-0.5,0-1-0.2-1.3-0.6c-0.6-0.7-0.4-1.7,0.3-2.3c6-4.8,13.9-6.3,20.9-4c0.9,0.3,1.3,1.2,1,2.1
			c-0.3,0.9-1.2,1.3-2.1,1c-6-2-12.7-0.7-17.9,3.4C66.5,23.7,66.2,23.8,65.8,23.8z"/>
	</g>
	<g id="XMLID_3104_">
		<path class="st2" d="M106.1,130.7c-0.1,0-0.3,0-0.4-0.1l-40-11.1c-0.6-0.2-1.1-0.7-1.2-1.3c-0.1-0.6,0.1-1.2,0.6-1.6l7.4-5.5
			c-5.7-6.8-23.3-28.8-30.9-48.4c-1.5-3.9-2.4-7.6-2.6-11c-0.4-6.1,2.2-12,7-15.8l18.9-15c0.6-0.5,1.5-0.5,2.1,0.1
			c0.6,0.6,0.7,1.5,0.2,2.1c-3.9,5.4-4,12.8-0.5,21.8c7.6,19.6,25.8,41.9,30.6,47.6l6.5-4.9c0.5-0.4,1.1-0.4,1.7-0.2
			c0.5,0.3,0.9,0.8,0.9,1.4l1.3,40c0,0.5-0.2,1-0.6,1.3C106.8,130.5,106.4,130.7,106.1,130.7z M69.7,117.2l34.6,9.7l-1.1-34.7
			L98,96.1c-0.7,0.5-1.7,0.4-2.2-0.2c-2.4-2.8-23.6-27.8-32.2-49.7c-2-5.2-3.7-12-2-18.5L47.9,38.5c-4,3.1-6.1,8-5.8,13
			c0.2,3.1,1,6.4,2.4,10c0.9,2.2,9.1,22.5,31.5,48.8c0.3,0.3,0.4,0.8,0.4,1.2c-0.1,0.4-0.3,0.9-0.6,1.1L69.7,117.2z"/>
	</g>
</g>
<g id="XMLID_3102_">
	<path class="st0" d="M77.9,115.7l4.6-3.5l-3.7-4.3C76.6,105.2,56,80.8,48,60.2c-1.3-3.2-2-6.3-2.2-9c-0.3-3.8,1.4-7.5,4.4-9.9
		l7.1-5.6c0.3,3.4,1.1,7.4,2.8,11.7C68.9,70,90.5,95.5,93,98.3l3.2,3.8l3.6-2.7l0.8,22.6L77.9,115.7z"/>
</g>
<g id="XMLID_3356_" class="st3">
	<path class="st4" d="M195.4,225.5L195.4,225.5c0,6.7-5.4,12.1-12.1,12.1h-62.1c-30.4,0-59.6-11.8-81-33.3
		c-7.6-7.7-14.8-17.1-20.7-28.6c-21.3-41.9-9.4-82.9-1.3-102.1c2.5-6.1,9.9-8.5,15.5-5.2l0,0c-9.5,15.8-15,34.3-15,54
		c0,57.9,47,104.9,104.9,104.5h59.6C187.5,227,191.6,226.5,195.4,225.5z"/>
</g>
<g id="XMLID_3107_">
	<path class="st2" d="M123.1,228.6c-28.1,0-54.5-10.9-74.5-30.7c-20.2-20.1-31.4-46.9-31.4-75.4c0-20.2,5.7-39.9,16.4-56.9
		c0.5-0.8,1.5-1,2.3-0.5c0.8,0.5,1,1.5,0.5,2.3C26,83.8,20.5,102.9,20.5,122.4c0,27.7,10.8,53.6,30.4,73.1
		c19.3,19.2,45,29.8,72.2,29.8c0.2,0,0.5,0,0.7,0h59.6c0.9,0,1.6,0.7,1.6,1.6s-0.7,1.6-1.6,1.6h-59.6
		C123.6,228.6,123.3,228.6,123.1,228.6z"/>
</g>
<g id="XMLID_3118_">
	<path class="st2" d="M183.4,228.6c-0.9,0-1.6-0.7-1.6-1.6s0.7-1.6,1.6-1.6c27.6,0,50.1-22.5,50.1-50.1c0-27.6-22.5-50.1-50.1-50.1
		s-50.1,22.5-50.1,50.1c0,14,5.6,26.9,15.8,36.5c0.7,0.6,0.7,1.6,0.1,2.3c-0.6,0.7-1.7,0.7-2.3,0.1c-10.7-10-16.8-24.2-16.8-38.9
		c0-29.4,23.9-53.3,53.3-53.3s53.3,23.9,53.3,53.3S212.8,228.6,183.4,228.6z"/>
</g>
<g>
	<ellipse transform="matrix(0.939 -0.344 0.344 0.939 -48.3481 73.7738)" class="st0" cx="183.8" cy="173.2" rx="25.6" ry="25.6"/>
</g>
<g>
	<path class="st2" d="M183.4,185.1c-5.4,0-9.8-4.4-9.8-9.8c0-5.4,4.4-9.8,9.8-9.8c5.4,0,9.8,4.4,9.8,9.8
		C193.1,180.7,188.7,185.1,183.4,185.1z M183.4,168.4c-3.8,0-6.9,3.1-6.9,6.9c0,3.8,3.1,6.9,6.9,6.9c3.8,0,6.9-3.1,6.9-6.9
		C190.3,171.5,187.2,168.4,183.4,168.4z"/>
</g>
<g>
	<path class="st2" d="M183.4,167.6c-0.9,0-1.6-0.7-1.6-1.6v-17.5c0-0.9,0.7-1.6,1.6-1.6s1.6,0.7,1.6,1.6V166
		C185,166.9,184.3,167.6,183.4,167.6z"/>
</g>
<g>
	<path class="st2" d="M202.4,186.3c-0.3,0-0.5-0.1-0.8-0.2l-10.9-6.1c-0.8-0.4-1.1-1.4-0.6-2.2c0.4-0.8,1.4-1.1,2.2-0.6l10.9,6.1
		c0.8,0.4,1.1,1.4,0.6,2.2C203.5,186,203,186.3,202.4,186.3z"/>
</g>
</svg>
