<?xml version="1.0" encoding="utf-8"?>
<!-- Generator: Adobe Illustrator 21.0.0, SVG Export Plug-In . SVG Version: 6.00 Build 0)  -->
<svg version="1.1" id="Слой_1" xmlns="http://www.w3.org/2000/svg" xmlns:xlink="http://www.w3.org/1999/xlink" x="0px" y="0px"
	 viewBox="0 0 111.3 180.3" style="enable-background:new 0 0 111.3 180.3;" xml:space="preserve">
<style type="text/css">
	.st0{fill:#FFFFFF;}
</style>
<title>icon1</title>
<path class="st0" d="M57.1,174.9c-0.3,0-0.7,0-1,0c-0.4-0.1-0.9-0.3-1.2-0.5c-1-0.6-2-1.1-3.2-1.4c-1.8-0.4-3-2.1-2.6-3.9
	c0.4-1.8,2.1-3,3.9-2.6c0.1,0,0.2,0,0.3,0.1c1.9,0.4,3.7,1.2,5.3,2.2c1.5,1,2,3.1,0.9,4.6C59,174.2,58.1,174.7,57.1,174.9z
	 M29.1,172c-1.1,0-2.3,0-3.4,0c-1.9,0-3.3-1.6-3.3-3.4c0-1.9,1.6-3.3,3.4-3.3c4.4,0.1,8.8,0,13.3,0c1.9,0.1,3.3,1.7,3.2,3.5
	c-0.1,1.7-1.5,3.1-3.2,3.2c-2.1,0-4.4,0-6.7,0L29.1,172z M12.2,170.4c-0.2,0-0.4-0.1-0.7-0.1c-5.5-1.7-10-5.4-9.8-12.2
	c0-0.3,0-0.6,0-0.9c0.2-1.8,1.8-3.2,3.7-3c1.8,0.2,3.1,1.7,3,3.5c0,0.2,0,0.4,0,0.6c-0.1,2.8,1.3,4.5,5.1,5.7
	c1.8,0.6,2.8,2.4,2.2,4.2c-0.4,1.3-1.5,2.2-2.9,2.3C12.6,170.4,12.4,170.4,12.2,170.4z M70.1,154.4c-1.2,0-2.5,0-3.8-0.1
	c-1.9-0.1-3.3-1.7-3.2-3.5c0.1-1.9,1.7-3.3,3.5-3.2c4.2,0.3,8.3,0.1,12.4-0.7c1.8-0.5,3.6,0.5,4.1,2.3c0.5,1.8-0.5,3.6-2.3,4.1
	c-0.1,0-0.2,0.1-0.3,0.1C77.1,154.1,73.6,154.5,70.1,154.4z M53.4,153.1c-0.2,0-0.4,0-0.7,0c-4.3-0.5-9-1.2-13.3-1.7
	c-1.8-0.2-3.1-1.9-2.9-3.7c0.2-1.8,1.9-3.1,3.7-2.9c4.5,0.5,8.8,1.1,13.3,1.7c1.8,0.2,3.1,1.9,2.9,3.8
	C56.2,151.7,55,152.9,53.4,153.1L53.4,153.1z M13.5,151.3h-0.7c-1.8-0.2-3.2-1.8-3-3.7c0.1-1.3,1.1-2.5,2.4-2.9
	c4.1-1.3,9.2-1.5,14.4-1.3c1.8,0.1,3.2,1.8,3.1,3.6c-0.1,1.8-1.6,3.1-3.4,3.1c-5-0.2-9.1,0.1-12.2,1
	C13.9,151.2,13.7,151.3,13.5,151.3z M90.2,145.9c-0.4,0-0.9-0.1-1.3-0.2c-1.7-0.7-2.6-2.6-1.9-4.3c0.2-0.6,0.4-1.3,0.5-2
	c0.3-1.6-0.6-3.4-3.6-5.5c-1.5-1.1-1.9-3.1-0.8-4.7s3.1-1.9,4.7-0.8c3.7,2.6,7.2,6.6,6.3,12c-0.2,1.1-0.5,2.2-0.9,3.3
	C92.8,145,91.6,145.8,90.2,145.9z M73.4,129c-0.2,0-0.5-0.1-0.7-0.1c-4.1-1.2-8.3-2.2-12.6-2.9l-0.4-0.2l-0.5,0.1
	c-0.8,0-1.6-0.3-2.2-0.8c-22.6-19.1-43.8-35.6-43.8-73c0-30,16.5-48.9,46.2-48.9c31,0,47.6,18.8,47.6,48.9
	c0,32.8-19.4,50.8-37.9,66.4l-2.3,2l3.6,0.9c1.4,0.4,2.8,0.7,4.3,1.2c1.8,0.6,2.7,2.5,2.2,4.2c-0.4,1.3-1.5,2.2-2.8,2.3
	C73.8,129,73.6,129,73.4,129z M59.2,118.1l5.7-4.8c18.3-15.6,35.4-31.6,35.4-61.3c0-26.7-13.9-42.2-40.8-42.2
	C33.9,9.8,20,25.3,19.9,52c0,29.7,14.2,44.6,33.1,60.8L59.2,118.1z M59.7,81.7c-18,0-32.6-14.6-32.6-32.6c0-18,14.6-32.6,32.6-32.6
	c18,0,32.6,14.6,32.6,32.6C92.3,67.1,77.7,81.7,59.7,81.7L59.7,81.7z M59.7,75C74,75,85.6,63.4,85.6,49.1
	c0-14.3-11.6-25.9-25.9-25.9S33.8,34.8,33.8,49.1C33.8,63.4,45.4,75,59.7,75C59.7,75,59.7,75,59.7,75L59.7,75z M57.4,64.7
	c-0.9,0.1-1.8-0.2-2.5-0.8L40.8,51.7c-1.3-1.3-1.4-3.4-0.1-4.7c1.2-1.2,3.1-1.4,4.5-0.3l11.4,9.9l15.1-19.2c1.2-1.4,3.4-1.5,4.7-0.3
	c1.3,1.1,1.5,3,0.5,4.4l-17.3,22C59.1,64.1,58.3,64.6,57.4,64.7L57.4,64.7z M44.4,42.9c-0.6,0-1.1-0.1-1.6-0.4
	c-1.7-0.8-2.3-2.8-1.5-4.5c0,0,0,0,0,0c1.9-4.1,5.5-7.3,9.9-8.7c1.8-0.5,3.6,0.6,4.1,2.3c0.5,1.7-0.4,3.4-2,4
	c-2.7,0.8-4.8,2.8-6,5.3C46.7,42.1,45.6,42.8,44.4,42.9z"/>
</svg>
