<?xml version="1.0" encoding="utf-8"?>
<!-- Generator: Adobe Illustrator 21.1.0, SVG Export Plug-In . SVG Version: 6.00 Build 0)  -->
<svg version="1.1" id="Слой_1" xmlns="http://www.w3.org/2000/svg" xmlns:xlink="http://www.w3.org/1999/xlink" x="0px" y="0px"
	 viewBox="0 0 250 250" style="enable-background:new 0 0 250 250;" xml:space="preserve">
<style type="text/css">
	.st0{fill:#CBC1FF;}
	.st1{fill:#00B5FF;}
	.st2{fill:#FFFFFF;}
	.st3{fill:#677D91;}
	.st4{fill:#DAE1E5;}
	.st5{opacity:0.4;}
</style>
<g id="XMLID_121_">
	<path class="st1" d="M163.7,230.1c-6.3-2.4-13.2-8.6-15.4-10.8l-0.1-0.1l-0.1-0.1c-10-8.6-15.7-21.1-15.7-34.3
		c0-25,20.3-45.3,45.3-45.3s45.3,20.3,45.3,45.3s-20.3,45.3-45.3,45.3h-4.4v0H163.7z"/>
</g>
<g id="XMLID_677_">
	<path class="st2" d="M119.4,60.9H58.8c-0.8,0-1.5-0.7-1.5-1.5c0-0.8,0.7-1.5,1.5-1.5h60.6c0.8,0,1.5,0.7,1.5,1.5
		C121,60.2,120.3,60.9,119.4,60.9z"/>
</g>
<g id="XMLID_119_">
	<path class="st2" d="M116,53.6c-0.8,0-1.5-0.7-1.5-1.5V10.7l-6.4,6c-0.6,0.5-1.5,0.5-2.1,0l-7.9-7.4l-7.9,7.4
		c-0.6,0.5-1.5,0.5-2.1,0l-7.9-7.4l-7.9,7.4c-0.6,0.5-1.5,0.5-2.1,0l-6.4-6v41.4c0,0.8-0.7,1.5-1.5,1.5c-0.8,0-1.5-0.7-1.5-1.5V7.2
		c0-0.6,0.4-1.2,0.9-1.4c0.6-0.2,1.2-0.1,1.6,0.3l7.9,7.4l7.9-7.4c0.6-0.5,1.5-0.5,2.1,0l7.9,7.4L97,6.1c0.6-0.5,1.5-0.5,2.1,0
		l7.9,7.4l7.9-7.4c0.4-0.4,1.1-0.5,1.6-0.3c0.6,0.2,0.9,0.8,0.9,1.4v44.9C117.5,53,116.8,53.6,116,53.6z"/>
</g>
<g id="XMLID_147_">
	<path class="st2" d="M177.7,236c-0.8,0-1.5-0.7-1.5-1.5v-17.7c0-0.8,0.7-1.5,1.5-1.5s1.5,0.7,1.5,1.5v17.7
		C179.2,235.4,178.5,236,177.7,236z"/>
</g>
<g id="XMLID_539_">
	<path class="st2" d="M177.7,153.6c-0.8,0-1.5-0.7-1.5-1.5V135c0-0.8,0.7-1.5,1.5-1.5c0.8,0,1.5,0.7,1.5,1.5v17.1
		C179.2,153,178.5,153.6,177.7,153.6z"/>
</g>
<g id="XMLID_538_">
	<path class="st2" d="M227.4,186.3h-22.9c-0.8,0-1.5-0.7-1.5-1.5s0.7-1.5,1.5-1.5h22.9c0.8,0,1.5,0.7,1.5,1.5
		S228.3,186.3,227.4,186.3z"/>
</g>
<g id="XMLID_537_">
	<path class="st2" d="M150.9,186.3h-22.9c-0.8,0-1.5-0.7-1.5-1.5s0.7-1.5,1.5-1.5h22.9c0.8,0,1.5,0.7,1.5,1.5
		S151.7,186.3,150.9,186.3z"/>
</g>
<g id="XMLID_536_">
	<path class="st2" d="M177.7,153.6c-11.2,0-22.3-1.7-33-4.9c-0.8-0.2-1.3-1.1-1-1.9c0.2-0.8,1.1-1.3,1.9-1
		c10.4,3.2,21.2,4.8,32.2,4.8c0.1,0,0.2,0,0.3,0c10.8,0,21.5-1.7,31.8-4.8c0.8-0.2,1.7,0.2,1.9,1c0.2,0.8-0.2,1.7-1,1.9
		c-10.6,3.3-21.6,4.9-32.7,4.9C177.9,153.6,177.8,153.6,177.7,153.6z"/>
</g>
<g id="XMLID_125_">
	<path class="st3" d="M163.1,236.1c-0.1,0-0.3,0-0.5-0.1c-0.1,0-0.2-0.1-0.3-0.1c-0.8-0.3-1.2-1.2-0.9-2c0.3-0.8,1.2-1.2,2-0.9
		c0,0,0.1,0,0.1,0c0.8,0.2,1.3,1.1,1,1.9C164.4,235.7,163.8,236.1,163.1,236.1z"/>
</g>
<g id="XMLID_123_">
	<path class="st2" d="M210.2,223.9c-0.2,0-0.3,0-0.5-0.1c-10.5-3.7-21.6-5.6-32.7-5.5c-10.7,0.1-21.2,1.9-31.3,5.5
		c-0.8,0.3-1.7-0.1-1.9-0.9c-0.3-0.8,0.1-1.7,0.9-1.9c10.4-3.7,21.3-5.6,32.3-5.7c11.5-0.1,22.9,1.8,33.8,5.7
		c0.8,0.3,1.2,1.2,0.9,1.9C211.4,223.5,210.8,223.9,210.2,223.9z"/>
</g>
<g id="XMLID_509_">
	<path class="st2" d="M166,234.6c-0.5,0-1-0.2-1.3-0.7c-5.7-8.3-15.3-25.7-15.3-49.1c0-23.5,9.6-41,15.3-49.3
		c0.5-0.7,1.4-0.9,2.1-0.4c0.7,0.5,0.9,1.4,0.4,2.1c-5.5,8-14.8,24.9-14.8,47.6c0,22.6,9.3,39.4,14.8,47.4c0.5,0.7,0.3,1.6-0.4,2.1
		C166.6,234.6,166.3,234.6,166,234.6z"/>
</g>
<g id="XMLID_218_">
	<path class="st2" d="M189.4,234.6c-0.3,0-0.6-0.1-0.9-0.3c-0.7-0.5-0.9-1.4-0.4-2.1c5.5-8,14.8-24.8,14.8-47.4
		c0-22.7-9.3-39.5-14.8-47.6c-0.5-0.7-0.3-1.6,0.4-2.1c0.7-0.5,1.6-0.3,2.1,0.4c5.7,8.3,15.4,25.8,15.3,49.3
		c0,23.4-9.6,40.8-15.3,49.1C190.4,234.4,189.9,234.6,189.4,234.6z"/>
</g>
<g id="XMLID_217_">
	<path class="st2" d="M178,218.4c-0.8,0-1.5-0.7-1.5-1.5v-64.7c0-0.8,0.7-1.5,1.5-1.5s1.5,0.7,1.5,1.5v64.7
		C179.5,217.7,178.8,218.4,178,218.4z"/>
</g>
<g id="XMLID_216_">
	<path class="st2" d="M204.5,186.4h-53.6c-0.8,0-1.5-0.7-1.5-1.5s0.7-1.5,1.5-1.5h53.6c0.8,0,1.5,0.7,1.5,1.5
		S205.3,186.4,204.5,186.4z"/>
</g>
<g id="XMLID_202_">
	<path class="st2" d="M84.1,143.3h-8c-0.8,0-1.5-0.7-1.5-1.5v-8c0-0.8,0.7-1.5,1.5-1.5h1.5c0.8,0,1.5,0.7,1.5,1.5
		c0,0.8-0.6,1.5-1.5,1.5v4.9h4.9v0c0-0.8,0.7-1.5,1.5-1.5s1.5,0.7,1.5,1.5v1.6C85.7,142.6,85,143.3,84.1,143.3z"/>
</g>
<g id="XMLID_201_">
	<path class="st2" d="M102,143.3h-8c-0.8,0-1.5-0.7-1.5-1.5v-8c0-0.8,0.7-1.5,1.5-1.5h1.5c0.8,0,1.5,0.7,1.5,1.5
		c0,0.8-0.6,1.5-1.5,1.5v4.9h4.9v0c0-0.8,0.7-1.5,1.5-1.5c0.8,0,1.5,0.7,1.5,1.5v1.6C103.6,142.6,102.9,143.3,102,143.3z"/>
</g>
<g id="XMLID_192_">
	<path class="st2" d="M119.9,143.3h-8c-0.8,0-1.5-0.7-1.5-1.5v-8c0-0.8,0.7-1.5,1.5-1.5h1.5c0.8,0,1.5,0.7,1.5,1.5
		c0,0.8-0.6,1.5-1.5,1.5v4.9h4.9v0c0-0.8,0.7-1.5,1.5-1.5c0.8,0,1.5,0.7,1.5,1.5v1.6C121.4,142.6,120.8,143.3,119.9,143.3z"/>
</g>
<g id="XMLID_189_">
	<path class="st2" d="M66.3,168.8h-8c-0.8,0-1.5-0.7-1.5-1.5v-8c0-0.8,0.7-1.5,1.5-1.5h1.5c0.8,0,1.5,0.7,1.5,1.5
		c0,0.8-0.6,1.5-1.5,1.5v4.9h4.9v0c0-0.8,0.7-1.5,1.5-1.5c0.8,0,1.5,0.7,1.5,1.5v1.6C67.8,168.1,67.1,168.8,66.3,168.8z"/>
</g>
<g id="XMLID_186_">
	<path class="st2" d="M84.1,168.8h-8c-0.8,0-1.5-0.7-1.5-1.5v-8c0-0.8,0.7-1.5,1.5-1.5h1.5c0.8,0,1.5,0.7,1.5,1.5
		c0,0.8-0.6,1.5-1.5,1.5v4.9h4.9v0c0-0.8,0.7-1.5,1.5-1.5s1.5,0.7,1.5,1.5v1.6C85.7,168.1,85,168.8,84.1,168.8z"/>
</g>
<g id="XMLID_182_">
	<path class="st2" d="M102,168.8h-8c-0.8,0-1.5-0.7-1.5-1.5v-8c0-0.8,0.7-1.5,1.5-1.5h1.5c0.8,0,1.5,0.7,1.5,1.5
		c0,0.8-0.6,1.5-1.5,1.5v4.9h4.9v0c0-0.8,0.7-1.5,1.5-1.5c0.8,0,1.5,0.7,1.5,1.5v1.6C103.6,168.1,102.9,168.8,102,168.8z"/>
</g>
<g id="XMLID_181_">
	<path class="st2" d="M119.9,168.8h-8c-0.8,0-1.5-0.7-1.5-1.5v-8c0-0.8,0.7-1.5,1.5-1.5h1.5c0.8,0,1.5,0.7,1.5,1.5
		c0,0.8-0.6,1.5-1.5,1.5v4.9h4.9v0c0-0.8,0.7-1.5,1.5-1.5c0.8,0,1.5,0.7,1.5,1.5v1.6C121.4,168.1,120.8,168.8,119.9,168.8z"/>
</g>
<g id="XMLID_206_">
	<path class="st2" d="M66.3,194.3h-8c-0.8,0-1.5-0.7-1.5-1.5v-8c0-0.8,0.7-1.5,1.5-1.5h1.5c0.8,0,1.5,0.7,1.5,1.5
		c0,0.8-0.6,1.5-1.5,1.5v4.9h4.9v0c0-0.8,0.7-1.5,1.5-1.5c0.8,0,1.5,0.7,1.5,1.5v1.6C67.8,193.6,67.1,194.3,66.3,194.3z"/>
</g>
<g id="XMLID_205_">
	<path class="st2" d="M84.1,194.3h-8c-0.8,0-1.5-0.7-1.5-1.5v-8c0-0.8,0.7-1.5,1.5-1.5h1.5c0.8,0,1.5,0.7,1.5,1.5
		c0,0.8-0.6,1.5-1.5,1.5v4.9h4.9v0c0-0.8,0.7-1.5,1.5-1.5s1.5,0.7,1.5,1.5v1.6C85.7,193.6,85,194.3,84.1,194.3z"/>
</g>
<g id="XMLID_191_">
	<path class="st2" d="M102,194.3h-8c-0.8,0-1.5-0.7-1.5-1.5v-8c0-0.8,0.7-1.5,1.5-1.5h1.5c0.8,0,1.5,0.7,1.5,1.5
		c0,0.8-0.6,1.5-1.5,1.5v4.9h4.9v0c0-0.8,0.7-1.5,1.5-1.5c0.8,0,1.5,0.7,1.5,1.5v1.6C103.6,193.6,102.9,194.3,102,194.3z"/>
</g>
<g id="XMLID_190_">
	<path class="st2" d="M119.9,194.3h-8c-0.8,0-1.5-0.7-1.5-1.5v-8c0-0.8,0.7-1.5,1.5-1.5h1.5c0.8,0,1.5,0.7,1.5,1.5
		c0,0.8-0.6,1.5-1.5,1.5v4.9h4.9v0c0-0.8,0.7-1.5,1.5-1.5c0.8,0,1.5,0.7,1.5,1.5v1.6C121.4,193.6,120.8,194.3,119.9,194.3z"/>
</g>
<g id="XMLID_212_">
	<path class="st2" d="M66.3,219.8h-8c-0.8,0-1.5-0.7-1.5-1.5v-8c0-0.8,0.7-1.5,1.5-1.5h1.5c0.8,0,1.5,0.7,1.5,1.5
		c0,0.8-0.6,1.5-1.5,1.5v4.9h4.9v0c0-0.8,0.7-1.5,1.5-1.5c0.8,0,1.5,0.7,1.5,1.5v1.6C67.8,219.1,67.1,219.8,66.3,219.8z"/>
</g>
<g id="XMLID_211_">
	<path class="st2" d="M84.1,219.8h-8c-0.8,0-1.5-0.7-1.5-1.5v-8c0-0.8,0.7-1.5,1.5-1.5h1.5c0.8,0,1.5,0.7,1.5,1.5
		c0,0.8-0.6,1.5-1.5,1.5v4.9h4.9v0c0-0.8,0.7-1.5,1.5-1.5s1.5,0.7,1.5,1.5v1.6C85.7,219.1,85,219.8,84.1,219.8z"/>
</g>
<g id="XMLID_208_">
	<path class="st2" d="M102,219.8h-8c-0.8,0-1.5-0.7-1.5-1.5v-8c0-0.8,0.7-1.5,1.5-1.5h1.5c0.8,0,1.5,0.7,1.5,1.5
		c0,0.8-0.6,1.5-1.5,1.5v4.9h4.9v0c0-0.8,0.7-1.5,1.5-1.5c0.8,0,1.5,0.7,1.5,1.5v1.6C103.6,219.1,102.9,219.8,102,219.8z"/>
</g>
<g id="XMLID_207_">
	<path class="st2" d="M119.9,219.8h-8c-0.8,0-1.5-0.7-1.5-1.5v-8c0-0.8,0.7-1.5,1.5-1.5h1.5c0.8,0,1.5,0.7,1.5,1.5
		c0,0.8-0.6,1.5-1.5,1.5v4.9h4.9v0c0-0.8,0.7-1.5,1.5-1.5c0.8,0,1.5,0.7,1.5,1.5v1.6C121.4,219.1,120.8,219.8,119.9,219.8z"/>
</g>
<g id="XMLID_209_">
	<path class="st2" d="M122.5,120.2H57.7c-1.8,0-3.3-1.5-3.3-3.3V80.1c0-1.8,1.5-3.3,3.3-3.3h64.8c1.8,0,3.3,1.5,3.3,3.3v36.8
		C125.8,118.7,124.3,120.2,122.5,120.2z M57.7,79.9c-0.1,0-0.2,0.1-0.2,0.2v36.8c0,0.1,0.1,0.2,0.2,0.2h64.8c0.1,0,0.2-0.1,0.2-0.2
		V80.1c0-0.1-0.1-0.2-0.2-0.2H57.7z"/>
</g>
<g id="XMLID_204_">
	<path class="st2" d="M66.3,143.3h-8c-0.8,0-1.5-0.7-1.5-1.5v-8c0-0.8,0.7-1.5,1.5-1.5h1.5c0.8,0,1.5,0.7,1.5,1.5
		c0,0.8-0.6,1.5-1.5,1.5v4.9h4.9v0c0-0.8,0.7-1.5,1.5-1.5c0.8,0,1.5,0.7,1.5,1.5v1.6C67.8,142.6,67.1,143.3,66.3,143.3z"/>
</g>
<g id="XMLID_241_">
	<path class="st4" d="M41.8,225.2c0,0.2,0,0.3,0,0.5C41.8,225.6,41.8,225.4,41.8,225.2z"/>
</g>
<g id="XMLID_156_" class="st5">
	<path class="st4" d="M177.7,127.5c-6.6,0-13.1,1.1-19.4,3.2c0,0,0,0-0.1,0c-6.5,2.1-13.2-2.7-13.2-9.5V58.8c0-7.2-5.8-13-13-13
		h-2.1c0,0,5.9,0.3,6.4,7.1l0.2,104c0,0,8.7-13.3,22.7-18.4v0.1c5.7-2.3,11.9-3.5,18.4-3.5c27.5,0,49.7,22.3,49.7,49.7
		c0,27.5-22.3,49.7-49.7,49.7h-14.7l-15.3,0l-20.7,0H51.2c-5,0-9.1-3.9-9.3-8.8c0,0.3,0,0.5,0,0.8c0.5,8.6,7.8,15.2,16.5,15.2
		l119.5-0.1c21.2,0,40.9-11.6,50.7-30.4c4.1-7.9,6.5-16.9,6.5-26.4C235,153.2,209.3,127.5,177.7,127.5z"/>
</g>
<g id="XMLID_152_">
	<path class="st2" d="M177.7,236h-14.7c-0.2,0-0.3,0-0.5-0.1c-8.9-3.1-17.6-11.7-18.3-12.4c-11.2-9.8-17.7-23.9-17.7-38.7
		c0-28.3,23-51.3,51.3-51.3c28.3,0,51.3,23,51.3,51.3c0,28.2-22.9,51.2-51.1,51.3C177.8,236,177.7,236,177.7,236z M163.2,233h14.4
		c0,0,0.1,0,0.1,0c26.6,0,48.2-21.6,48.2-48.2s-21.6-48.2-48.2-48.2c-26.6,0-48.2,21.6-48.2,48.2c0,14,6.1,27.3,16.7,36.5
		c0,0,0.1,0.1,0.1,0.1C146.3,221.4,154.8,230,163.2,233z"/>
</g>
<g id="XMLID_149_">
	<path class="st2" d="M162.2,236.1h-111c-6,0-10.8-4.8-10.9-10.8c0,0,0-0.1,0-0.1v-173c0-4.4,3.6-8,8-8h7.7c0.8,0,1.5,0.7,1.5,1.5
		c0,0.8-0.7,1.5-1.5,1.5h-7.7c-2.7,0-4.9,2.2-4.9,4.9v172.9c0,0,0,0,0,0.1c0,4.3,3.5,7.8,7.8,7.8h111c0.8,0,1.5,0.7,1.5,1.5
		S163.1,236.1,162.2,236.1z"/>
</g>
<g id="XMLID_542_">
	<path class="st2" d="M136.4,158.3c-0.8,0-1.5-0.7-1.5-1.5V52.2c0-2.7-2.2-4.9-4.9-4.9h-7.8c-0.8,0-1.5-0.7-1.5-1.5
		c0-0.8,0.7-1.5,1.5-1.5h7.8c4.4,0,8,3.6,8,8v104.6C137.9,157.7,137.2,158.3,136.4,158.3z"/>
</g>
</svg>
