<?xml version="1.0" encoding="utf-8"?>
<!-- Generator: Adobe Illustrator 21.1.0, SVG Export Plug-In . SVG Version: 6.00 Build 0)  -->
<svg version="1.1" id="Слой_1" xmlns="http://www.w3.org/2000/svg" xmlns:xlink="http://www.w3.org/1999/xlink" x="0px" y="0px"
	 viewBox="0 0 250 250" style="enable-background:new 0 0 250 250;" xml:space="preserve">
<style type="text/css">
	.st0{fill:#00B5FF;}
	.st1{fill:#FFFFFF;}
	.st2{opacity:0.4;}
	.st3{fill:#DAE1E5;}
</style>
<g id="XMLID_231_">
	<path class="st0" d="M220.7,111.4c-0.1,21.1-0.4,67.4-38.1,91.8c-4.4,2.9-9.8,2.9-14.3,0c-37.2-24.1-38-70.7-38.2-90.9
		c1.6-2.5,16.8-26.4,44.3-27.1C202.9,84.5,219.3,109.2,220.7,111.4z"/>
</g>
<g id="XMLID_408_">
	<g id="XMLID_3059_">
		<path class="st1" d="M178.9,165.4h-4.7c-4.3,0-8.3-1.9-11.3-5.3c-2-2.2-3.3-5-4-8c-0.3-1.3-0.4-2.6-0.4-3.9v-7.5
			c0-4.8,3.9-8.7,8.7-8.7h18.6c4.8,0,8.7,3.9,8.7,8.7v7.5C194.7,157.7,187.6,165.4,178.9,165.4z M167.3,134.7c-3.3,0-6,2.7-6,6v7.5
			c0,1.1,0.1,2.3,0.4,3.4c0.5,2.6,1.7,4.9,3.4,6.8c2.5,2.8,5.7,4.3,9.2,4.3h4.7c7.1,0,13-6.5,13-14.5v-7.5c0-3.3-2.7-6-6-6H167.3z
			 M176.6,157.7c-0.3,0-0.5,0-0.8-0.1c-2.2-0.4-3.8-2.4-3.8-4.7l0-0.2c0-1,0.1-2,0.1-3l-1.3-2.7c-0.9-2-0.8-4.3,0.4-6.2
			c1.1-1.8,3-2.9,5.1-3c0.1,0,0.1,0,0.1,0h0.2c2.1,0,4.1,1.1,5.3,3c1.2,1.9,1.3,4.2,0.4,6.2l-1.3,2.7l0.1,3.3c0,2.3-1.5,4.3-3.7,4.6
			c-0.2,0-0.3,0.1-0.5,0.1C176.8,157.7,176.7,157.7,176.6,157.7z M176.7,140.6l-0.2,0c0,0-0.1,0-0.1,0c-1.1,0-2.2,0.6-2.8,1.7
			c-0.7,1.1-0.8,2.4-0.2,3.6l1.4,3c0.1,0.2,0.1,0.4,0.1,0.6c0,1.1-0.1,2.2-0.1,3.3l0,0.2c0,0.9,0.6,1.8,1.4,1.9c0.2,0,0.4,0,0.5,0
			c0.1,0,0.2,0,0.2,0c0.8-0.1,1.4-1,1.4-1.9l-0.1-3.6c0-0.2,0-0.4,0.1-0.6l1.4-3c0,0,0,0,0,0c0.5-1.2,0.5-2.5-0.2-3.6
			C179,141.2,177.9,140.6,176.7,140.6z"/>
	</g>
</g>
<g id="XMLID_274_">
	<path class="st1" d="M188.4,134.7c0,0-0.1,0-0.1,0c-0.8-0.1-1.3-0.7-1.3-1.5c0.3-3.6-0.9-7.1-3.3-9.6c-2-2.1-4.5-3.3-7.2-3.3
		c-2.7,0-5.2,1.2-7.2,3.3c-2.4,2.5-3.6,6-3.3,9.6c0.1,0.8-0.5,1.4-1.3,1.5c-0.8,0.1-1.4-0.5-1.5-1.3c-0.3-4.4,1.2-8.6,4-11.7
		c2.5-2.7,5.8-4.2,9.2-4.2c3.4,0,6.7,1.5,9.2,4.2c2.9,3.1,4.3,7.4,4,11.7C189.7,134.2,189.1,134.7,188.4,134.7z"/>
</g>
<g id="XMLID_270_">
	<path class="st1" d="M142.2,196.5c-0.4,0-0.8-0.2-1.1-0.5c-23.1-29.3-23.5-67.9-23.6-84.4l0-3.3c0-0.3,0.1-0.5,0.2-0.7l1.7-2.8
		c3.3-5.4,21.6-32.4,54.8-33.3c0.5,0,1.1,0,1.6,0c0.8,0,1.4,0.6,1.4,1.4c0,0.8-0.6,1.4-1.4,1.4c-0.5,0-1,0-1.5,0
		c-31.8,0.8-49.3,26.8-52.5,32l-1.5,2.4l0,2.9c0.2,16.2,0.5,54.1,23,82.7c0.5,0.6,0.4,1.5-0.2,1.9
		C142.8,196.4,142.5,196.5,142.2,196.5z"/>
</g>
<g id="XMLID_631_">
	<path class="st1" d="M175.5,206.8c-2.7,0-5.5-0.8-7.9-2.4c-16.3-10.5-27.6-26.6-33.6-47.7c-5-17.7-5.2-35-5.3-44.3
		c0-0.8,0.6-1.4,1.4-1.4c0,0,0,0,0,0c0.8,0,1.4,0.6,1.4,1.4c0.1,9.2,0.2,26.3,5.2,43.6c5.8,20.4,16.7,36,32.4,46.1
		c4,2.6,8.8,2.6,12.8,0c15.9-10.3,26.9-25.9,32.6-46.4c4.7-16.9,4.9-33.7,4.9-43.9c-2.6-3.9-18.3-25.9-44.9-25.2
		c-7.4,0.2-14.6,2.2-21.4,5.8c-0.7,0.4-1.5,0.1-1.9-0.6c-0.4-0.7-0.1-1.5,0.6-1.9c7.1-3.9,14.8-6,22.6-6.2c29-0.8,45.7,24,47.5,26.8
		c0.1,0.2,0.2,0.5,0.2,0.8l0,0c-0.1,10.3-0.2,27.6-5,45c-5.9,21.1-17.2,37.2-33.8,47.9C180.9,206,178.2,206.8,175.5,206.8z"/>
</g>
<g id="XMLID_285_">
	<path class="st1" d="M86.8,170c-3.9,0-7-3.1-7-7v-2.3c-4.2-0.9-7.8-2.6-10.7-5.1c-0.6-0.5-0.6-1.4-0.1-2c0.5-0.6,1.4-0.6,2-0.1
		c2.8,2.4,6.4,4,10.5,4.7c0.7,0.1,1.2,0.7,1.2,1.4v3.5c0,2.3,1.9,4.2,4.2,4.2s4.2-1.9,4.2-4.2v-3.5c0-0.7,0.5-1.3,1.2-1.4
		c4-0.7,7.4-2.2,9.8-4.5c3-2.7,4.5-6.4,4.5-10.9c0-4.5-1.4-7.7-4.7-10.6c-0.6-0.5-0.6-1.4-0.1-2c0.5-0.6,1.4-0.6,2-0.1
		c3.9,3.5,5.6,7.4,5.6,12.7c0,5.3-1.8,9.6-5.4,12.9c-2.6,2.4-6,4.1-10.1,5v2.4C93.8,166.9,90.7,170,86.8,170z"/>
</g>
<g id="XMLID_284_">
	<path class="st1" d="M102.7,132.5c-0.3,0-0.6-0.1-0.9-0.3c-2.9-2.5-7.2-4.7-13.2-6.7c-2.5-0.8-5.4-2.8-6.3-5.9
		c-0.6-1.9-0.2-3.8,0.8-5.3c1-1.3,2.5-2.1,4.2-2.1c0.8,0,1.4,0.6,1.4,1.4c0,0.8-0.6,1.4-1.4,1.4c-1.1,0-1.7,0.5-2,1
		c-0.6,0.8-0.7,1.8-0.4,2.9c0.6,2.1,2.8,3.5,4.5,4.1c6.3,2.1,11,4.4,14.1,7.2c0.6,0.5,0.6,1.4,0.1,2
		C103.5,132.4,103.1,132.5,102.7,132.5z"/>
</g>
<g id="XMLID_283_">
	<path class="st1" d="M86.8,148.5h-5.2c-0.8,0-1.4-0.6-1.4-1.4c0-0.8,0.6-1.4,1.4-1.4h5.2c1.3,0,2.4-1,2.4-2.3
		c0-0.9-0.5-1.7-1.7-2.6c-2.3-1.7-4.9-2.9-7.6-4.1c-3.5-1.6-7-3.2-10-6c-2.3-2.2-5-6.1-5-12.8c0-5.3,1.8-9.6,5.4-12.9
		c2.6-2.4,6-4.1,10.1-5v-2.4c0-3.9,3.1-7,7-7s7,3.1,7,7v2.3c4.2,0.9,7.8,2.6,10.7,5.1c0.6,0.5,0.6,1.4,0.1,2c-0.5,0.6-1.4,0.6-2,0.1
		c-2.8-2.4-6.4-4-10.5-4.7c-0.7-0.1-1.2-0.7-1.2-1.4v-3.5c0-2.3-1.9-4.2-4.2-4.2c-2.3,0-4.2,1.9-4.2,4.2v3.5c0,0.7-0.5,1.3-1.2,1.4
		c-4,0.7-7.4,2.2-9.8,4.5c-3,2.7-4.5,6.4-4.5,10.9c0,3.1,0.7,7.6,4.2,10.8c2.6,2.5,5.8,3.9,9.2,5.5c2.7,1.2,5.6,2.5,8.1,4.4
		c1.9,1.4,2.8,3,2.8,4.9C91.9,146.3,89.6,148.5,86.8,148.5z"/>
</g>
<g id="XMLID_242_" class="st2">
	<path class="st3" d="M235.6,153.6c-7.1,30.7-25.2,72-62.5,72H36.7c-4.7,0-8.5-3.8-8.5-8.5v-167c0-4.5,3.6-8.2,8-8.2
		c0,0,0.1,0,0.1,0v175.8l130.4,0.7c9.9,0.1,19.7-3,27.7-8.8c0.1,0,0.1-0.1,0.2-0.1c12.1-8.8,18.1-19.1,21.4-24.9
		c16.8-28.8,16.1-69.1,15.9-75.9l0.1,0c0,0,0.1,0,0.1,0c4.5-0.1,8,3.6,8,8.1C240.1,129.2,238.4,141.6,235.6,153.6z"/>
</g>
<g id="XMLID_570_">
	<path class="st1" d="M175.5,219.1H36.3c-0.8,0-1.4-0.6-1.4-1.4V43c0-0.8,0.6-1.4,1.4-1.4h97.8c0.8,0,1.4,0.6,1.4,1.4v34.4
		c0,0.8-0.6,1.4-1.4,1.4s-1.4-0.6-1.4-1.4v-33h-95v171.9h137.7c0.8,0,1.4,0.6,1.4,1.4S176.2,219.1,175.5,219.1z"/>
</g>
<g id="XMLID_269_">
	<path class="st1" d="M175.5,219.1c-0.8,0-1.4-0.6-1.4-1.4s0.6-1.4,1.4-1.4c4.1,0,8.2-1.2,11.8-3.5c42.9-27.8,43.2-79.9,43.4-102.2
		l0-3.4c0-0.8,0.6-1.4,1.4-1.4c0,0,0,0,0,0c0.8,0,1.4,0.6,1.4,1.4l0,3.4c-0.1,22.7-0.5,76-44.6,104.5
		C184.7,217.7,180.1,219.1,175.5,219.1z"/>
</g>
</svg>
