<?xml version="1.0" encoding="utf-8"?>
<!-- Generator: Adobe Illustrator 21.0.0, SVG Export Plug-In . SVG Version: 6.00 Build 0)  -->
<svg version="1.1" id="Слой_1" xmlns="http://www.w3.org/2000/svg" xmlns:xlink="http://www.w3.org/1999/xlink" x="0px" y="0px"
	 viewBox="0 0 156 187.5" style="enable-background:new 0 0 156 187.5;" xml:space="preserve">
<style type="text/css">
	.st0{fill:#FFFFFF;}
</style>
<title>icon2</title>
<path class="st0" d="M112.5,183.4c-21.4-0.2-35.1-9.5-46.6-20.6s-20.4-23.3-33.4-31.5c-7.3-4.6-12.9-1.9-15.3,2.3s-2,10.9,6,15.6
	c2,1.2,2.6,3.8,1.3,5.8c-1.2,1.9-3.7,2.6-5.6,1.4c-11.7-6.9-13.8-18.6-9-27s15.9-12.4,27.1-5.2c14.1,9,23.7,21.9,34.7,32.6
	c10.6,10.2,22.4,18,40.9,18.3c5.1,0.1,14.8-2.4,20.7-6.8c3-2.2,4.4-4.3,4.6-6.3c0.2-1.4-0.1-3.3-2-5.9l-0.8-0.9l-2.8,1.7
	c-7.4,4.1-15.7,6.5-24.1,6.7c-10.2,0.3-20.1-3.9-26.9-11.6L10.8,74.3c-0.1-0.1-0.2-0.2-0.3-0.4c-16-22.2-6.3-53,19.9-67.8
	c1.8-1,4-0.6,5.3,1L65,42.7c1.2,1.5,1.3,3.7,0.1,5.2C61.1,53.3,57,57,54.2,61.8c-1.8,3.1-2.4,5.7-1.4,8.4l1.6,2.8l32.6,37.1l2.9,2
	c7.2,3.4,16.1-2.2,25.7-9.7c1.7-1.4,4.2-1.2,5.7,0.4l30,32.3c1.4,1.5,1.5,3.8,0.2,5.5c-2.6,3.3-5.5,6.3-8.7,9l-0.9,0.7l0.8,0.9
	c2.8,3.9,4,7.9,3.5,11.9c-0.7,5.2-4.1,9.2-8,12C130.7,180.5,119.3,183.5,112.5,183.4z M108.4,154.8c5.5-0.2,10.9-1.4,15.9-3.6
	l5.9-3.1l-26-28.7l-4,1.4c-6.3,1.6-12.9,0.9-18.9-4.5c-0.1-0.1-0.2-0.2-0.3-0.3L48,78.4c0,0-0.1-0.1-0.1-0.2
	c-5.9-7.4-4.4-14.7-1-20.6l0.4-0.7l-27-31.5L19,26.9c-8.9,12-10.4,26.9-3.9,38.8l2,3.2l70.4,77.4
	C93.1,152.4,100.6,154.9,108.4,154.8L108.4,154.8z M137.1,143.2l1.8-1.4l3.6-3.9l-24.7-26.6l-0.6,0.5l-5.3,3.5L137.1,143.2z
	 M142.8,95.7c-0.6,0-1.1-0.1-1.6-0.3c-2.2-0.9-3.2-3.3-2.4-5.5c16.3-41.3-24.1-86.5-60-72.1c-2.2,0.9-4.6-0.2-5.5-2.3
	c-0.9-2.2,0.2-4.6,2.3-5.5c43.4-17.4,89.7,35.5,71,83.1C146,94.6,144.5,95.6,142.8,95.7L142.8,95.7z M121.8,83.8
	c-0.6,0-1.1-0.1-1.6-0.3c-2.2-0.9-3.2-3.3-2.4-5.5c3.9-10,1.1-20.6-5.2-28s-15.4-10.7-23.7-7.3c-2.2,0.9-4.6-0.2-5.5-2.3
	c-0.9-2.2,0.2-4.6,2.4-5.5c12.6-5,25.3,0.4,33.2,9.7s11.9,23.2,6.7,36.6C125,82.7,123.5,83.7,121.8,83.8L121.8,83.8z M52.3,50.2
	l3.5-4.2l0.5-0.6l-24.8-30l-1.1,0.7l-4.3,3.4L52.3,50.2z"/>
</svg>
