<?xml version="1.0" encoding="utf-8"?>
<!-- Generator: Adobe Illustrator 21.1.0, SVG Export Plug-In . SVG Version: 6.00 Build 0)  -->
<svg version="1.1" id="Слой_1" xmlns="http://www.w3.org/2000/svg" xmlns:xlink="http://www.w3.org/1999/xlink" x="0px" y="0px"
	 viewBox="0 0 250 250" style="enable-background:new 0 0 250 250;" xml:space="preserve">
<style type="text/css">
	.st0{fill:#EBEBED;}
	.st1{fill:#483798;}
	.st2{fill:#CFC3FF;}
	.st3{fill:#E8E8E9;}
	.st4{fill:#CFC3FF;stroke:#483798;stroke-width:2;stroke-miterlimit:10;}
	.st5{fill:#FFFFFF;}
</style>
<g>
	<path class="st0" d="M33.8,97.2h-8.9c-7.6,0-13.4-5.8-13.4-13.4v134.2c0,7.6,5.8,13.4,13.4,13.4h8.9V97.2z"/>
</g>
<g>
	<rect x="181.4" y="12.2" class="st1" width="8.9" height="26.8"/>
</g>
<g>
	
		<rect x="197" y="27.3" transform="matrix(0.4999 -0.8661 0.8661 0.4999 76.8394 196.5306)" class="st1" width="23.3" height="8.9"/>
</g>
<g>
	
		<rect x="214.4" y="44.6" transform="matrix(0.8661 -0.4999 0.4999 0.8661 5.7106 119.5582)" class="st1" width="23.3" height="8.9"/>
</g>
<g>
	<rect x="221.6" y="70.3" class="st1" width="22.4" height="8.9"/>
</g>
<g>
	<path class="st0" d="M11.5,83.8c0,7.6,5.8,13.4,13.4,13.4h169.9V70.3H24.9C17.3,70.3,11.5,76.2,11.5,83.8z"/>
</g>
<g>
	<path class="st1" d="M199.3,97.2h-8.9V74.8H24.9c-5.1,0-8.9,3.8-8.9,8.9H7c0-10,7.9-17.9,17.9-17.9h174.4V97.2z"/>
</g>
<g>
	<polyline class="st2" points="172.9,97.2 109.9,34.2 46.6,97.2 	"/>
</g>
<g>
	<polygon class="st1" points="49.8,100.3 43.5,94 109.9,27.9 176,94 169.7,100.3 109.9,40.5 	"/>
</g>
<g>
	<path class="st3" d="M141.2,97.2l-21.8-21.9c-6.3,6.3-12.6,6.3-19,0L78.5,97.2"/>
</g>
<g>
	<path class="st1" d="M81.7,100.3L75.4,94l25-25.1l3.2,3.2c4.5,4.5,8.1,4.5,12.6,0l3.2-3.2L144.3,94l-6.3,6.3l-18.9-19
		c-6,4.2-12.4,4.2-18.4,0L81.7,100.3z"/>
</g>
<g>
	<path class="st1" d="M221.6,235.8H24.9c-10,0-17.9-7.9-17.9-17.9V83.8h8.9c0,5.1,3.8,8.9,8.9,8.9h196.8V235.8z M15.9,99.3v118.6
		c0,5.1,3.8,8.9,8.9,8.9h187.8V101.6H24.9C21.6,101.6,18.6,100.8,15.9,99.3z"/>
</g>
<g>
	<path class="st4" d="M221.6,186.6h-64.8c-13.6,0-24.6-11-24.6-24.6l0,0c0-13.6,11-24.6,24.6-24.6h64.8c4.9,0,8.9,4,8.9,8.9v31.3
		C230.6,182.6,226.6,186.6,221.6,186.6z"/>
	<path class="st1" d="M221.6,191.1h-64.8c-16,0-29.1-13-29.1-29.1s13-29.1,29.1-29.1h64.8c7.4,0,13.4,6,13.4,13.4v31.3
		C235.1,185.1,229,191.1,221.6,191.1z M156.8,141.9c-11.1,0-20.1,9-20.1,20.1c0,11.1,9,20.1,20.1,20.1h64.8c2.5,0,4.5-2,4.5-4.5
		v-31.3c0-2.5-2-4.5-4.5-4.5H156.8z"/>
</g>
<g>
	<circle class="st5" cx="161.3" cy="162" r="11.2"/>
	<path class="st1" d="M161.3,177.7c-8.6,0-15.7-7-15.7-15.7s7-15.7,15.7-15.7c8.6,0,15.7,7,15.7,15.7S169.9,177.7,161.3,177.7z
		 M161.3,155.3c-3.7,0-6.7,3-6.7,6.7s3,6.7,6.7,6.7c3.7,0,6.7-3,6.7-6.7S165,155.3,161.3,155.3z"/>
</g>
</svg>
