<?xml version="1.0" encoding="utf-8"?>
<!-- Generator: Adobe Illustrator 21.1.0, SVG Export Plug-In . SVG Version: 6.00 Build 0)  -->
<svg version="1.1" id="Слой_1" xmlns="http://www.w3.org/2000/svg" xmlns:xlink="http://www.w3.org/1999/xlink" x="0px" y="0px"
	 viewBox="0 0 250 250" style="enable-background:new 0 0 250 250;" xml:space="preserve">
<style type="text/css">
	.st0{fill:#FFFFFF;}
	.st1{fill:#7D3E0C;}
	.st2{fill:#FFC094;}
</style>
<g>
	<g>
		<path class="st0" d="M227.9,39.8H34.3c-6.2,0-13,5.1-13,11.3v132c0,6.2,6.8,12.2,13,12.2h193.6c6.2,0,11.9-6,11.9-12.2v-132
			C239.8,45,234,39.8,227.9,39.8z"/>
	</g>
	<g>
		<rect x="36.1" y="50.9" class="st1" width="188.9" height="7.4"/>
	</g>
	<g>
		<rect x="217.6" y="65.8" class="st1" width="7.4" height="103.7"/>
	</g>
	<g>
		<rect x="36.1" y="176.8" class="st1" width="188.9" height="7.4"/>
	</g>
	<g>
		<rect x="36.1" y="113.9" class="st1" width="7.4" height="18.5"/>
	</g>
	<g>
		<rect x="36.1" y="158.3" class="st1" width="7.4" height="11.1"/>
	</g>
	<g>
		<rect x="36.1" y="65.8" class="st1" width="7.4" height="7.4"/>
	</g>
	<g>
		<polygon class="st1" points="78.4,213.9 46.2,213.9 41,209.2 46,203.7 49,206.5 75.3,206.5 77.9,203.9 83.2,209.1 		"/>
	</g>
	<g>
		<polygon class="st1" points="215.4,213.9 183.2,213.9 178.1,209.2 183,203.7 186,206.5 212.3,206.5 215,203.9 220.2,209.1 		"/>
	</g>
	<g>
		<path class="st1" d="M58.3,106.5H13.9c-4.1,0-7.4-3.3-7.4-7.4V80.6c0-4.1,3.3-7.4,7.4-7.4h44.4v7.4H13.9v18.5h37V88h7.4V106.5z"/>
	</g>
	<g>
		<path class="st1" d="M58.3,162H13.9c-4.1,0-7.4-3.3-7.4-7.4v-18.5c0-4.1,3.3-7.4,7.4-7.4h44.4v7.4H13.9v18.5h37v-11.1h7.4V162z"/>
	</g>
	<g>
		<circle class="st2" cx="132.4" cy="117.6" r="40.7"/>
		<path class="st1" d="M132.4,162c-24.5,0-44.4-19.9-44.4-44.4s19.9-44.4,44.4-44.4s44.4,19.9,44.4,44.4S156.9,162,132.4,162z
			 M132.4,80.6c-20.4,0-37,16.6-37,37s16.6,37,37,37s37-16.6,37-37S152.8,80.6,132.4,80.6z"/>
	</g>
	<g>
		<circle class="st0" cx="132.4" cy="117.6" r="18.5"/>
		<path class="st1" d="M132.4,139.8c-12.3,0-22.2-10-22.2-22.2s10-22.2,22.2-22.2s22.2,10,22.2,22.2S144.7,139.8,132.4,139.8z
			 M132.4,102.8c-8.2,0-14.8,6.6-14.8,14.8s6.6,14.8,14.8,14.8s14.8-6.6,14.8-14.8S140.6,102.8,132.4,102.8z"/>
	</g>
	<g>
		<rect x="128.7" y="76.9" class="st1" width="7.4" height="14.8"/>
	</g>
	<g>
		<rect x="128.7" y="143.5" class="st1" width="7.4" height="14.8"/>
	</g>
	<g>
		<rect x="158.3" y="113.9" class="st1" width="14.8" height="7.4"/>
	</g>
	<g>
		<rect x="91.7" y="113.9" class="st1" width="14.8" height="7.4"/>
	</g>
	<g>
		
			<rect x="152.8" y="133.8" transform="matrix(0.7071 -0.7071 0.7071 0.7071 -54.3407 152.1381)" class="st1" width="7.4" height="15.7"/>
	</g>
	<g>
		
			<rect x="104.6" y="85.7" transform="matrix(0.7071 -0.7071 0.7071 0.7071 -34.4002 103.9975)" class="st1" width="7.4" height="15.7"/>
	</g>
	<g>
		
			<rect x="100.5" y="138" transform="matrix(0.7071 -0.7071 0.7071 0.7071 -68.4408 118.0975)" class="st1" width="15.7" height="7.4"/>
	</g>
	<g>
		
			<rect x="148.6" y="89.8" transform="matrix(0.7071 -0.7071 0.7071 0.7071 -20.3001 138.038)" class="st1" width="15.7" height="7.4"/>
	</g>
	<g>
		<rect x="17.6" y="102.8" class="st1" width="7.4" height="29.6"/>
	</g>
	<g>
		<path class="st1" d="M227.9,199.1H34.3c-8.4,0-16.7-7.9-16.7-15.9v-24.9H25v24.9c0,4,4.9,8.5,9.3,8.5h193.6c4.1,0,8.2-4.3,8.2-8.5
			v-132c0-4-3.9-7.6-8.2-7.6H34.3c-4.1,0-9.3,3.6-9.3,7.6v25.7h-7.4V51.1c0-8.6,8.8-15,16.7-15h193.6c8.3,0,15.6,7,15.6,15v132
			C243.5,191.5,236.1,199.1,227.9,199.1z"/>
	</g>
</g>
</svg>
