<?xml version="1.0" encoding="utf-8"?>
<!-- Generator: Adobe Illustrator 21.1.0, SVG Export Plug-In . SVG Version: 6.00 Build 0)  -->
<svg version="1.1" id="Слой_1" xmlns="http://www.w3.org/2000/svg" xmlns:xlink="http://www.w3.org/1999/xlink" x="0px" y="0px"
	 viewBox="0 0 250 250" style="enable-background:new 0 0 250 250;" xml:space="preserve">
<style type="text/css">
	.st0{fill:#57DEFF;}
	.st1{fill:#FFFFFF;}
	.st2{fill:#006693;}
</style>
<g>
	<rect x="227.9" y="55.2" class="st0" width="8" height="24.1"/>
</g>
<g>
	<rect x="219.9" y="63.2" class="st0" width="24.1" height="8"/>
</g>
<g>
	<rect x="15" y="159.6" class="st0" width="8" height="24.1"/>
</g>
<g>
	<rect x="7" y="167.7" class="st0" width="24.1" height="8"/>
</g>
<g>
	<path class="st1" d="M175.7,27.1H35.1c-8.9,0-16.1,7.2-16.1,16.1v76.3c0,8.9,7.2,16.1,16.1,16.1h140.6c8.9,0,16.1-7.2,16.1-16.1
		V43.2C191.8,34.3,184.6,27.1,175.7,27.1z"/>
</g>
<g>
	<path class="st2" d="M47.2,139.6H35.1c-11.1,0-20.1-9-20.1-20.1V43.2c0-11.1,9-20.1,20.1-20.1h140.6c11.1,0,20.1,9,20.1,20.1v56.2
		h-8V43.2c0-6.6-5.4-12.1-12.1-12.1H35.1c-6.6,0-12.1,5.4-12.1,12.1v76.3c0,6.6,5.4,12.1,12.1,12.1h12.1V139.6z"/>
</g>
<g>
	<rect x="19.1" y="43.2" class="st2" width="172.7" height="8"/>
</g>
<g>
	<rect x="19.1" y="67.3" class="st2" width="172.7" height="8"/>
</g>
<g>
	<path class="st0" d="M71.3,107.4c-8.9,0-16.1,7.2-16.1,16.1v84.4c0,8.8,7.2,16.1,16.1,16.1h140.6c8.9,0,16.1-7.2,16.1-16.1v-84.4
		c0-8.9-7.2-16.1-16.1-16.1H71.3z"/>
	<path class="st2" d="M211.9,227.9H71.3c-11.1,0-20.1-9-20.1-20.1v-84.4c0-11.1,9-20.1,20.1-20.1h140.6c11.1,0,20.1,9,20.1,20.1
		v84.4C231.9,218.9,222.9,227.9,211.9,227.9z M71.3,111.4c-6.6,0-12.1,5.4-12.1,12.1v84.4c0,6.6,5.4,12.1,12.1,12.1h140.6
		c6.6,0,12.1-5.4,12.1-12.1v-84.4c0-6.6-5.4-12.1-12.1-12.1H71.3z"/>
</g>
<g>
	<rect x="79.3" y="191.8" class="st2" width="24.1" height="8"/>
</g>
<g>
	<rect x="115.5" y="191.8" class="st2" width="20.1" height="8"/>
</g>
<g>
	<rect x="147.6" y="191.8" class="st2" width="24.1" height="8"/>
</g>
<g>
	<rect x="183.7" y="191.8" class="st2" width="24.1" height="8"/>
</g>
<g>
	<path class="st1" d="M207.8,145.6c0,7.8-6.3,14.1-14.1,14.1h-4c-7.8,0-14.1-6.3-14.1-14.1l0,0c0-7.8,6.3-14.1,14.1-14.1h4
		C201.6,131.5,207.8,137.8,207.8,145.6L207.8,145.6z"/>
	<path class="st2" d="M193.8,163.7h-4c-10,0-18.1-8.1-18.1-18.1s8.1-18.1,18.1-18.1h4c10,0,18.1,8.1,18.1,18.1
		S203.8,163.7,193.8,163.7z M189.8,135.5c-5.5,0-10,4.5-10,10s4.5,10,10,10h4c5.5,0,10-4.5,10-10s-4.5-10-10-10H189.8z"/>
</g>
<g>
	<rect x="31.1" y="83.3" class="st2" width="36.2" height="8"/>
</g>
<g>
	<rect x="75.3" y="83.3" class="st2" width="36.2" height="8"/>
</g>
</svg>
