<svg xmlns="http://www.w3.org/2000/svg" xmlns:xlink="http://www.w3.org/1999/xlink" width="22" height="19" viewBox="0 0 22 19"><defs><path id="h4una" d="M1303.1 2229.5l-5.89-5.82a.71.71 0 0 0-.51-.21c-.2 0-.37.07-.52.21a.7.7 0 0 0-.22.51v2.91h-2.57c-5.46 0-8.81 1.53-10.05 4.58-.4 1.02-.6 2.28-.6 3.79 0 1.25.48 2.96 1.45 5.12a26.2 26.2 0 0 0 .28.61c.04.1.1.19.14.25.1.13.2.2.33.2.11 0 .2-.04.27-.12.06-.07.1-.17.1-.28l-.03-.3a9.58 9.58 0 0 1 .11-3.72c.13-.6.32-1.13.56-1.58.23-.44.54-.82.92-1.14a5.4 5.4 0 0 1 2.73-1.28c.6-.11 1.18-.2 1.77-.24.6-.05 1.27-.07 2.02-.07h2.57v2.9c0 .2.07.38.22.52s.32.22.52.22.37-.08.51-.22l5.88-5.82a.7.7 0 0 0 .22-.5.7.7 0 0 0-.22-.52z"/><clipPath id="h4unb"><use fill="#fff" xlink:href="#h4una"/></clipPath></defs><g><g transform="translate(-1282 -2223)"><use fill="#fafbfb" xlink:href="#h4una"/><use fill="#fff" fill-opacity="0" stroke="#20add0" stroke-linecap="round" stroke-linejoin="round" stroke-miterlimit="50" stroke-width="6" clip-path="url(&quot;#h4unb&quot;)" xlink:href="#h4una"/></g></g></svg>