<svg xmlns="http://www.w3.org/2000/svg" width="25.9" height="21.7" viewBox="0 0 37 31">
  <defs>
    <style>
      .cls-1 {
        fill: #110f46;
        fill-rule: evenodd;
      }
    </style>
  </defs>
  <path id="t" class="cls-1" d="M2477.16,13663.6a11.4,11.4,0,0,1-1.79.6,7.626,7.626,0,0,0,1.61-2.9,0.513,0.513,0,0,0-.19-0.6,0.583,0.583,0,0,0-.68-0.1,12.96,12.96,0,0,1-4.16,1.7,7.79,7.79,0,0,0-5.56-2.3,8.016,8.016,0,0,0-7.95,8.1,10.152,10.152,0,0,0,.07,1.1,20.1,20.1,0,0,1-13.96-7.6,0.5,0.5,0,0,0-.51-0.2,0.518,0.518,0,0,0-.47.3,8.22,8.22,0,0,0,.82,9.3,4.52,4.52,0,0,1-1.07-.5,0.445,0.445,0,0,0-.58.1,0.589,0.589,0,0,0-.3.5v0.1a8.331,8.331,0,0,0,3.89,7,1.329,1.329,0,0,0-.61-0.1,0.442,0.442,0,0,0-.56.2,0.616,0.616,0,0,0-.12.6,8.051,8.051,0,0,0,5.82,5.4,13.329,13.329,0,0,1-7.51,2.2,9.421,9.421,0,0,1-1.68-.1,0.608,0.608,0,0,0-.64.4,0.563,0.563,0,0,0,.24.7,20.894,20.894,0,0,0,11.59,3.5,20.343,20.343,0,0,0,15.96-7.2,23.09,23.09,0,0,0,5.54-14.8c0-.2-0.01-0.4-0.01-0.7a14.182,14.182,0,0,0,3.55-3.8,0.729,0.729,0,0,0-.04-0.8A0.6,0.6,0,0,0,2477.16,13663.6Z" transform="translate(-2441 -13660)"/>
</svg>
